<?xml version="1.0" encoding="UTF-8"?>
<svg version="1.1" xmlns="http://www.w3.org/2000/svg" width="419" height="104">
<path d="M0 0 C23.44007803 -0.23278916 46.62752818 -0.00794431 70 2 C71.46234369 2.11969657 72.92474882 2.23864448 74.38720703 2.35693359 C78.18697147 2.66494844 81.98575572 2.98304531 85.78396606 3.30966187 C87.24384533 3.43505286 88.70386583 3.55881182 90.16403198 3.68081665 C92.19335721 3.85238813 94.22170914 4.03535461 96.25 4.21875 C97.99023438 4.3724707 97.99023438 4.3724707 99.765625 4.52929688 C103.03475585 5.00505807 105.90621496 5.85858082 109 7 C109 7.66 109 8.32 109 9 C110.98 9.66 112.96 10.32 115 11 C115 12.32 115 13.64 115 15 C117.31 15 119.62 15 122 15 C122 15.66 122 16.32 122 17 C119.03 17.33 116.06 17.66 113 18 C118.28 18.66 123.56 19.32 129 20 C129.33 21.32 129.66 22.64 130 24 C114.36381393 26.69562355 98.82354196 28.80577042 83 30 C83 30.99 83 31.98 83 33 C83.98742187 32.98839844 84.97484375 32.97679687 85.9921875 32.96484375 C87.27351563 32.95582031 88.55484375 32.94679687 89.875 32.9375 C91.15117187 32.92589844 92.42734375 32.91429687 93.7421875 32.90234375 C97 33 97 33 99 34 C100.99651809 34.20418935 102.99759821 34.36522296 105 34.5 C110.77777778 34.88888889 110.77777778 34.88888889 113 36 C113 37.32 113 38.64 113 40 C114.32 40 115.64 40 117 40 C116.67 40.99 116.34 41.98 116 43 C114.515 43.495 114.515 43.495 113 44 C113.33 45.32 113.66 46.64 114 48 C116.97 48.33 119.94 48.66 123 49 C123.33 50.32 123.66 51.64 124 53 C122.35 53.33 120.7 53.66 119 54 C119 54.66 119 55.32 119 56 C117.02 56.99 115.04 57.98 113 59 C113.56589844 59.24234375 114.13179688 59.4846875 114.71484375 59.734375 C115.44832031 60.06953125 116.18179687 60.4046875 116.9375 60.75 C117.66839844 61.07484375 118.39929688 61.3996875 119.15234375 61.734375 C121 63 121 63 121.84375 65.05078125 C121.92109375 66.01564453 121.92109375 66.01564453 122 67 C121 68 120 69 119 70 C118.74930087 72.62570704 118.74930087 72.62570704 119 75 C117.02 75.99 117.02 75.99 115 77 C115 77.66 115 78.32 115 79 C110.78936845 82.18642387 106.11230643 83.26142403 101.07421875 84.484375 C99.76102913 84.80677155 99.76102913 84.80677155 98.42131042 85.13568115 C89.23792149 87.30650467 79.97837622 88.67796229 70.6262207 89.88574219 C67.80156158 90.25141606 64.9799668 90.63611269 62.15820312 91.0234375 C47.22477511 93.034632 32.44826833 94.20620523 17.3671875 93.9375 C13.9507105 93.92964472 13.9507105 93.92964472 10.41015625 94.52734375 C7.25270383 94.96497461 4.70782604 94.95027992 1.5625 94.5625 C0.69753906 94.46066406 -0.16742188 94.35882813 -1.05859375 94.25390625 C-1.69925781 94.17011719 -2.33992188 94.08632812 -3 94 C-3 93.34 -3 92.68 -3 92 C-3.99256805 92.00222061 -4.98513611 92.00444122 -6.00778198 92.00672913 C-15.39356512 92.027062 -24.77934375 92.04202084 -34.16514397 92.05181217 C-38.98966266 92.05701531 -43.81416347 92.06406597 -48.63867188 92.07543945 C-53.30061136 92.08636004 -57.96253372 92.09229616 -62.62448502 92.09487724 C-64.39693598 92.09671503 -66.16938607 92.10030359 -67.94182968 92.10573006 C-83.92953815 92.15270014 -83.92953815 92.15270014 -91.38424683 91.25270081 C-97.87334596 90.62580657 -104.43035348 90.62721332 -110.9453125 90.46484375 C-112.56770666 90.42175131 -114.19009224 90.37833463 -115.81246948 90.33460999 C-120.05045733 90.22125221 -124.28854615 90.11225486 -128.52667236 90.00421143 C-132.86420632 89.8928463 -137.20162859 89.77729383 -141.5390625 89.66210938 C-150.02593875 89.43734241 -158.51292645 89.2171887 -167 89 C-167.33 87.68 -167.66 86.36 -168 85 C-173.61 85.99 -179.22 86.98 -185 88 C-185 88.33 -185 88.66 -185 89 C-206.45 89 -227.9 89 -250 89 C-250 88.34 -250 87.68 -250 87 C-250.62567871 86.97494385 -251.25135742 86.9498877 -251.89599609 86.92407227 C-254.72254619 86.80824727 -257.54875169 86.68546015 -260.375 86.5625 C-261.35984375 86.52318359 -262.3446875 86.48386719 -263.359375 86.44335938 C-264.30039062 86.40146484 -265.24140625 86.35957031 -266.2109375 86.31640625 C-267.08024902 86.27974854 -267.94956055 86.24309082 -268.84521484 86.20532227 C-271 86 -271 86 -273 85 C-273 84.01 -273 83.02 -273 82 C-266.09388657 81.09648403 -259.36254045 80.8673088 -252.40234375 80.90234375 C-251.32747208 80.9037587 -250.2526004 80.90517365 -249.14515686 80.90663147 C-245.74257517 80.91218849 -242.34006149 80.92473287 -238.9375 80.9375 C-236.6178395 80.94252056 -234.29817796 80.94708249 -231.97851562 80.95117188 C-226.31898757 80.96214381 -220.65949865 80.9788386 -215 81 C-215 81.66 -215 82.32 -215 83 C-211.95826902 83.02754082 -208.91679887 83.04709291 -205.875 83.0625 C-204.62009766 83.07506836 -204.62009766 83.07506836 -203.33984375 83.08789062 C-195.86113999 83.11600605 -188.45209803 82.60211431 -181 82 C-203.32872438 80.5581508 -225.63084865 79.5395971 -248 79 C-248.33 78.01 -248.66 77.02 -249 76 C-249.99 76 -250.98 76 -252 76 C-252 75.34 -252 74.68 -252 74 C-243.75 73.01 -235.5 72.02 -227 71 C-229.97 70.67 -232.94 70.34 -236 70 C-236.33 69.67 -236.66 69.34 -237 69 C-238.38674224 68.72873327 -239.78391959 68.51018945 -241.18359375 68.31640625 C-242.02857422 68.19330078 -242.87355469 68.07019531 -243.74414062 67.94335938 C-245.53534535 67.69007082 -247.32701584 67.4400539 -249.11914062 67.19335938 C-249.96541016 67.06896484 -250.81167969 66.94457031 -251.68359375 66.81640625 C-252.46275146 66.70756104 -253.24190918 66.59871582 -254.04467773 66.48657227 C-256 66 -256 66 -258 64 C-258.99 64.99 -258.99 64.99 -260 66 C-261.32 66 -262.64 66 -264 66 C-264 65.01 -264 64.02 -264 63 C-266.64 63 -269.28 63 -272 63 C-272.33 62.34 -272.66 61.68 -273 61 C-270.69 61 -268.38 61 -266 61 C-266 59.68 -266 58.36 -266 57 C-265.34 57 -264.68 57 -264 57 C-264 57.99 -264 58.98 -264 60 C-261.69 59.01 -259.38 58.02 -257 57 C-260.35091771 56.24636948 -263.43109812 55.88020063 -266.86328125 55.90234375 C-267.74951172 55.90556641 -268.63574219 55.90878906 -269.54882812 55.91210938 C-270.9168457 55.92467773 -270.9168457 55.92467773 -272.3125 55.9375 C-273.24384766 55.94201172 -274.17519531 55.94652344 -275.13476562 55.95117188 C-277.42324373 55.96290766 -279.71158808 55.97932637 -282 56 C-282 55.01 -282 54.02 -282 53 C-274.2972024 50.86257449 -266.98030063 49.52501978 -259 49 C-263.95 48.67 -268.9 48.34 -274 48 C-273.67 47.01 -273.34 46.02 -273 45 C-272.01604248 44.96241577 -272.01604248 44.96241577 -271.01220703 44.92407227 C-268.04959817 44.8082674 -265.08731969 44.68547114 -262.125 44.5625 C-261.09246094 44.52318359 -260.05992187 44.48386719 -258.99609375 44.44335938 C-258.00996094 44.40146484 -257.02382813 44.35957031 -256.0078125 44.31640625 C-255.09660645 44.27974854 -254.18540039 44.24309082 -253.24658203 44.20532227 C-250.96516519 44.13422935 -250.96516519 44.13422935 -249 43 C-249 42.01 -249 41.02 -249 40 C-243.6822785 38.75799248 -238.41798672 37.69165788 -233 37 C-233 36.67 -233 36.34 -233 36 C-235.64 35.67 -238.28 35.34 -241 35 C-241.33 34.01 -241.66 33.02 -242 32 C-240.35 31.67 -238.7 31.34 -237 31 C-238.13018555 30.98018066 -239.26037109 30.96036133 -240.42480469 30.93994141 C-244.62196964 30.8638112 -248.81879126 30.77510521 -253.015625 30.68261719 C-254.83131121 30.64435809 -256.64707241 30.60949983 -258.46289062 30.578125 C-261.07449123 30.5324077 -263.68557688 30.47442464 -266.296875 30.4140625 C-267.51271271 30.39673569 -267.51271271 30.39673569 -268.75311279 30.37905884 C-272.61264724 30.27821844 -275.72818586 30.18888974 -279 28 C-277.68 27.67 -276.36 27.34 -275 27 C-275.66 26.67 -276.32 26.34 -277 26 C-277 25.34 -277 24.68 -277 24 C-273.04 24 -269.08 24 -265 24 C-265 23.34 -265 22.68 -265 22 C-262.36 21.34 -259.72 20.68 -257 20 C-256.67 18.68 -256.34 17.36 -256 16 C-254.0390625 15.0234375 -254.0390625 15.0234375 -251.625 14.375 C-248.51757485 13.51463799 -246.74876969 12.83251313 -244 11 C-243.67 10.34 -243.34 9.68 -243 9 C-241.26799011 8.61436462 -241.26799011 8.61436462 -238.98120117 8.42163086 C-237.69671333 8.30657448 -237.69671333 8.30657448 -236.38627625 8.18919373 C-234.97883904 8.07814049 -234.97883904 8.07814049 -233.54296875 7.96484375 C-232.5707991 7.88126114 -231.59862946 7.79767853 -230.59700012 7.71156311 C-228.52166435 7.53495574 -226.44593377 7.36293914 -224.36987305 7.19506836 C-221.26585612 6.94384183 -218.16321807 6.67938813 -215.06054688 6.41210938 C-213.03392188 6.24138183 -211.0072306 6.07143894 -208.98046875 5.90234375 C-208.08063766 5.82628403 -207.18080658 5.7502243 -206.25370789 5.67185974 C-190.17372704 4.38098958 -174.09699524 3.85461563 -157.96963501 3.73963928 C-154.97604643 3.71812879 -151.98254623 3.69117328 -148.98901367 3.66296387 C-141.57825344 3.59410847 -134.16743194 3.53348689 -126.7565918 3.47393799 C-120.43817656 3.42298303 -114.11981794 3.36825575 -107.80148315 3.30812073 C-104.85668626 3.28164723 -101.9118834 3.26079794 -98.96704102 3.2401123 C-97.17203503 3.22351833 -95.37703158 3.20664729 -93.58203125 3.18945312 C-92.36033234 3.1831765 -92.36033234 3.1831765 -91.11395264 3.17677307 C-87.57839186 3.13747694 -84.40289439 2.94839525 -81 2 C-81 2.33 -81 2.66 -81 3 C-79.02 3.33 -77.04 3.66 -75 4 C-75 3.34 -75 2.68 -75 2 C-73.02 2 -71.04 2 -69 2 C-69 2.33 -69 2.66 -69 3 C-65.85418577 3.02888514 -62.70840531 3.04675923 -59.5625 3.0625 C-58.66466797 3.07087891 -57.76683594 3.07925781 -56.84179688 3.08789062 C-55.56079102 3.09272461 -55.56079102 3.09272461 -54.25390625 3.09765625 C-53.46314697 3.10289307 -52.6723877 3.10812988 -51.85766602 3.11352539 C-49.98407311 3.20495909 -49.98407311 3.20495909 -49 2 C-47.55710213 1.90704185 -46.10970215 1.88253487 -44.66381836 1.88647461 C-43.7429393 1.88655014 -42.82206024 1.88662567 -41.87327576 1.88670349 C-40.87224319 1.89186478 -39.87121063 1.89702606 -38.83984375 1.90234375 C-37.31043907 1.90446617 -37.31043907 1.90446617 -35.75013733 1.90663147 C-32.47922893 1.91224903 -29.20838787 1.9248045 -25.9375 1.9375 C-23.72591244 1.94251274 -21.51432382 1.94707604 -19.30273438 1.95117188 C-13.86846643 1.96222416 -8.43423803 1.97897937 -3 2 C-3 2.66 -3 3.32 -3 4 C-1.515 3.505 -1.515 3.505 0 3 C0 2.01 0 1.02 0 0 Z M92 8 C92 8.33 92 8.66 92 9 C93.65 9 95.3 9 97 9 C97 8.67 97 8.34 97 8 C95.35 8 93.7 8 92 8 Z M-272 26 C-272 26.33 -272 26.66 -272 27 C-270.35 27 -268.7 27 -267 27 C-267 26.67 -267 26.34 -267 26 C-268.65 26 -270.3 26 -272 26 Z M-243 42 C-243 42.33 -243 42.66 -243 43 C-241.02 43 -239.04 43 -237 43 C-237 42.67 -237 42.34 -237 42 C-238.98 42 -240.96 42 -243 42 Z M-169 82 C-168.01 82.495 -168.01 82.495 -167 83 C-167 83.66 -167 84.32 -167 85 C-165.2984375 84.7834375 -165.2984375 84.7834375 -163.5625 84.5625 C-159.04646944 83.99698633 -154.52452819 83.49225191 -150 83 C-150 82.67 -150 82.34 -150 82 C-156.27 82 -162.54 82 -169 82 Z " fill="#040404" transform="translate(289,6)"/>
<path d="M0 0 C15.17965601 -0.21668026 30.33343362 0.43987647 45.5 1 C48.17315626 1.09693997 50.84634417 1.19297288 53.51953125 1.2890625 C60.01313252 1.52304022 66.50661007 1.7602322 73 2 C73 2.99 73 3.98 73 5 C71.865625 4.83628906 70.73125 4.67257813 69.5625 4.50390625 C65.0255689 3.93678986 60.56624335 3.88606052 56 3.9375 C55.22527344 3.94201172 54.45054687 3.94652344 53.65234375 3.95117188 C51.76819476 3.96280242 49.88408635 3.98073094 48 4 C48 5.65 48 7.3 48 9 C47.505 7.515 47.505 7.515 47 6 C41.39 6.99 35.78 7.98 30 9 C30 9.33 30 9.66 30 10 C8.55 10 -12.9 10 -35 10 C-35 9.34 -35 8.68 -35 8 C-35.62567871 7.97494385 -36.25135742 7.9498877 -36.89599609 7.92407227 C-39.72254619 7.80824727 -42.54875169 7.68546015 -45.375 7.5625 C-46.35984375 7.52318359 -47.3446875 7.48386719 -48.359375 7.44335938 C-49.30039062 7.40146484 -50.24140625 7.35957031 -51.2109375 7.31640625 C-52.08024902 7.27974854 -52.94956055 7.24309082 -53.84521484 7.20532227 C-56 7 -56 7 -58 6 C-58 5.01 -58 4.02 -58 3 C-51.09388657 2.09648403 -44.36254045 1.8673088 -37.40234375 1.90234375 C-36.32747208 1.9037587 -35.2526004 1.90517365 -34.14515686 1.90663147 C-30.74257517 1.91218849 -27.34006149 1.92473287 -23.9375 1.9375 C-21.6178395 1.94252056 -19.29817796 1.94708249 -16.97851562 1.95117188 C-11.31898757 1.96214381 -5.65949865 1.9788386 0 2 C0 2.66 0 3.32 0 4 C3.04173098 4.02754082 6.08320113 4.04709291 9.125 4.0625 C9.96160156 4.07087891 10.79820313 4.07925781 11.66015625 4.08789062 C19.19994128 4.11623568 26.40924069 3.54219709 34 3 C22.78 2.34 11.56 1.68 0 1 C0 0.67 0 0.34 0 0 Z " fill="#999999" transform="translate(74,85)"/>
<path d="M0 0 C0.804375 0.2165625 0.804375 0.2165625 1.625 0.4375 C4.39915827 1.09453748 7.18525388 1.55219948 10 2 C10 1.34 10 0.68 10 0 C11.98 0 13.96 0 16 0 C16 0.33 16 0.66 16 1 C19.14581423 1.02888514 22.29159469 1.04675923 25.4375 1.0625 C26.33533203 1.07087891 27.23316406 1.07925781 28.15820312 1.08789062 C29.43920898 1.09272461 29.43920898 1.09272461 30.74609375 1.09765625 C31.53685303 1.10289307 32.3276123 1.10812988 33.14233398 1.11352539 C35.01592689 1.20495909 35.01592689 1.20495909 36 0 C37.44289787 -0.09295815 38.89029785 -0.11746513 40.33618164 -0.11352539 C41.2570607 -0.11344986 42.17793976 -0.11337433 43.12672424 -0.11329651 C44.12775681 -0.10813522 45.12878937 -0.10297394 46.16015625 -0.09765625 C47.68956093 -0.09553383 47.68956093 -0.09553383 49.24986267 -0.09336853 C52.52077107 -0.08775097 55.79161213 -0.0751955 59.0625 -0.0625 C61.27408756 -0.05748726 63.48567618 -0.05292396 65.69726562 -0.04882812 C71.13153357 -0.03777584 76.56576197 -0.02102063 82 0 C82 0.66 82 1.32 82 2 C88.27 2 94.54 2 101 2 C101 2.33 101 2.66 101 3 C84.45342371 3.132614 67.9068318 3.26305844 51.36021996 3.39115143 C43.67145377 3.45071951 35.98269362 3.51091832 28.29394531 3.57275391 C19.39129125 3.64427095 10.48862327 3.71379517 1.5859375 3.78125 C0.49360597 3.78956254 0.49360597 3.78956254 -0.62079287 3.79804301 C-21.60093913 3.9570081 -42.57982498 4.05590424 -63.56069946 3.98706055 C-89.03462588 3.61037253 -89.03462588 3.61037253 -114.3828125 5.53125 C-118.13180993 6.0170812 -121.72220444 6.09882496 -125.5 6.0625 C-126.7271875 6.05347656 -127.954375 6.04445313 -129.21875 6.03515625 C-130.1365625 6.02355469 -131.054375 6.01195312 -132 6 C-132 5.67 -132 5.34 -132 5 C-129.08396615 4.68047714 -126.16736318 4.36947628 -123.25 4.0625 C-122.46367188 3.97548828 -121.67734375 3.88847656 -120.8671875 3.79882812 C-103.94573576 2.04160044 -86.91820838 1.83162702 -69.921875 1.68359375 C-67.88779349 1.66294895 -65.85371555 1.64195098 -63.81964111 1.62062073 C-58.53945857 1.56617504 -53.25924251 1.51643367 -47.97900391 1.46777344 C-42.56149413 1.41698172 -37.14403131 1.36160089 -31.7265625 1.30664062 C-21.15108204 1.2000114 -10.57556032 1.0983668 0 1 C0 0.67 0 0.34 0 0 Z " fill="#C2C2C2" transform="translate(204,8)"/>
<path d="M0 0 C1.63400002 0.01214539 1.63400002 0.01214539 3.30101013 0.02453613 C6.79602072 0.0552682 10.29041687 0.10320899 13.78515625 0.15625 C14.92849426 0.17268555 16.07183228 0.18912109 17.24981689 0.20605469 C25.28308252 0.32671232 33.31528339 0.48733834 41.34765625 0.65625 C43.73892765 0.70465696 46.13020369 0.75283496 48.52148438 0.80078125 C54.27609758 0.91664782 60.03064823 1.0352775 65.78515625 1.15625 C66.28015625 2.64125 66.28015625 2.64125 66.78515625 4.15625 C61.68497549 4.44718044 56.58448543 4.73166006 51.48364258 5.01074219 C49.75666128 5.10607245 48.02976822 5.20301785 46.30297852 5.30175781 C29.39161838 6.26671461 12.64565928 6.28271434 -4.27734375 5.65625 C-5.64517264 5.60779962 -7.01301121 5.55962195 -8.38085938 5.51171875 C-11.6589588 5.39588485 -14.93693649 5.27737955 -18.21484375 5.15625 C-18.21484375 4.16625 -18.21484375 3.17625 -18.21484375 2.15625 C-12.06912272 -0.01793617 -6.47978428 -0.09377778 0 0 Z " fill="#878787" transform="translate(136.21484375,2.84375)"/>
<path d="M0 0 C0 0.66 0 1.32 0 2 C2.31 2 4.62 2 7 2 C7 2.33 7 2.66 7 3 C4.69 3 2.38 3 0 3 C0 3.66 0 4.32 0 5 C3.3 5 6.6 5 10 5 C10 5.33 10 5.66 10 6 C-3.53 6 -17.06 6 -31 6 C-31 5.67 -31 5.34 -31 5 C-43.87 3.515 -43.87 3.515 -57 2 C-57 1.67 -57 1.34 -57 1 C-51.13253789 0.85540924 -45.26502625 0.71309431 -39.39746094 0.57275391 C-37.40753748 0.52485429 -35.41762806 0.47636706 -33.42773438 0.42724609 C-22.28282001 0.1525475 -11.149077 -0.08611173 0 0 Z " fill="#080808" transform="translate(74,88)"/>
<path d="M0 0 C1.98 0 3.96 0 6 0 C6 0.33 6 0.66 6 1 C9.14581423 1.02888514 12.29159469 1.04675923 15.4375 1.0625 C16.33533203 1.07087891 17.23316406 1.07925781 18.15820312 1.08789062 C19.43920898 1.09272461 19.43920898 1.09272461 20.74609375 1.09765625 C21.53685303 1.10289307 22.3276123 1.10812988 23.14233398 1.11352539 C25.01592689 1.20495909 25.01592689 1.20495909 26 0 C27.44289787 -0.09295815 28.89029785 -0.11746513 30.33618164 -0.11352539 C31.71750023 -0.11341209 31.71750023 -0.11341209 33.12672424 -0.11329651 C34.12775681 -0.10813522 35.12878937 -0.10297394 36.16015625 -0.09765625 C37.17975937 -0.0962413 38.19936249 -0.09482635 39.24986267 -0.09336853 C42.52077107 -0.08775097 45.79161213 -0.0751955 49.0625 -0.0625 C51.27408756 -0.05748726 53.48567618 -0.05292396 55.69726562 -0.04882812 C61.13153357 -0.03777584 66.56576197 -0.02102063 72 0 C72 0.66 72 1.32 72 2 C78.27 2 84.54 2 91 2 C91 2.33 91 2.66 91 3 C60.64 3 30.28 3 -1 3 C-0.67 2.01 -0.34 1.02 0 0 Z " fill="#868686" transform="translate(214,8)"/>
<path d="M0 0 C1.32 0 2.64 0 4 0 C4 0.66 4 1.32 4 2 C4.66 2 5.32 2 6 2 C6 2.66 6 3.32 6 4 C-1.73629861 6.01056348 -9.49713507 6.75856336 -17.4362793 7.43261719 C-19.66610021 7.62317124 -21.89448736 7.82652862 -24.12304688 8.03125 C-33.11276829 8.82985491 -41.96838973 9.1779185 -51 9 C-51 8.34 -51 7.68 -51 7 C-43.95339369 5.54549008 -37.03102498 4.67377913 -29.84765625 4.24609375 C-27.14369518 4.09662068 -27.14369518 4.09662068 -25.16088867 3.50439453 C-22.6062737 2.90809642 -20.19940355 2.78553236 -17.578125 2.68359375 C-16.55332031 2.64169922 -15.52851562 2.59980469 -14.47265625 2.55664062 C-13.40917969 2.51732422 -12.34570312 2.47800781 -11.25 2.4375 C-9.63158203 2.37272461 -9.63158203 2.37272461 -7.98046875 2.30664062 C-5.32043572 2.20071011 -2.66031188 2.09863579 0 2 C0 1.34 0 0.68 0 0 Z " fill="#3A3A3A" transform="translate(90,3)"/>
<path d="M0 0 C0 0.66 0 1.32 0 2 C6.09750428 1.88009334 12.19489845 1.75577488 18.29223633 1.62768555 C20.35861888 1.5848598 22.4250251 1.54315843 24.49145508 1.50268555 C37.01620663 1.25650625 49.50137115 0.86040903 62 0 C62 0.33 62 0.66 62 1 C34.0665243 4.41449508 34.0665243 4.41449508 20.30761719 4.06445312 C15.73776449 3.9485583 11.53947512 4.33844142 7 5 C4.12890625 4.87890625 4.12890625 4.87890625 1.5625 4.5625 C0.69753906 4.46066406 -0.16742188 4.35882813 -1.05859375 4.25390625 C-1.69925781 4.17011719 -2.33992188 4.08632812 -3 4 C-3 3.34 -3 2.68 -3 2 C-29.73 2 -56.46 2 -84 2 C-84 1.67 -84 1.34 -84 1 C-55.99362016 0.22014376 -28.01705593 -0.14429194 0 0 Z " fill="#B3B3B3" transform="translate(289,96)"/>
<path d="M0 0 C9.92907332 -0.27538262 19.20460071 0.46346678 29 2 C29.33 2.99 29.66 3.98 30 5 C32.475 5.495 32.475 5.495 35 6 C35 6.33 35 6.66 35 7 C26.04252971 7.13237641 18.52800135 6.84266712 10 4 C10 3.34 10 2.68 10 2 C6.7 1.67 3.4 1.34 0 1 C0 0.67 0 0.34 0 0 Z " fill="#9A9A9A" transform="translate(368,10)"/>
<path d="M0 0 C0 0.33 0 0.66 0 1 C-10.89 1.99 -10.89 1.99 -22 3 C-22 3.99 -22 4.98 -22 6 C-17.38 6 -12.76 6 -8 6 C-8 6.33 -8 6.66 -8 7 C-23.345 7.495 -23.345 7.495 -39 8 C-39 7.67 -39 7.34 -39 7 C-34.05 6.34 -29.1 5.68 -24 5 C-26.64 4.67 -29.28 4.34 -32 4 C-32 3.01 -32 2.02 -32 1 C-21.31485445 0.32157806 -10.71092709 -0.15498126 0 0 Z " fill="#AAAAAA" transform="translate(394,33)"/>
<path d="M0 0 C0 0.33 0 0.66 0 1 C-11.69975746 2.25940704 -23.2187584 3.35640731 -35 3 C-35 2.34 -35 1.68 -35 1 C-23.0964298 -1.57872314 -12.07547276 -1.07508184 0 0 Z " fill="#888888" transform="translate(74,9)"/>
<path d="M0 0 C1.30066406 -0.00515625 2.60132813 -0.0103125 3.94140625 -0.015625 C8.5698944 0.33603667 10.63800242 1.71700161 14.4375 4.25 C10.68756521 4.30811773 6.93774648 4.34363593 3.1875 4.375 C1.59228516 4.40013672 1.59228516 4.40013672 -0.03515625 4.42578125 C-1.57236328 4.43544922 -1.57236328 4.43544922 -3.140625 4.4453125 C-4.55456543 4.46102295 -4.55456543 4.46102295 -5.99707031 4.47705078 C-8.66201941 4.24119213 -10.28113092 3.60661659 -12.5625 2.25 C-8.29402683 0.17744656 -4.71593995 -0.01873263 0 0 Z " fill="#A1A1A1" transform="translate(22.5625,31.75)"/>
<path d="M0 0 C5.4389165 -0.21755666 9.87080814 -0.10428384 15 2 C15 2.99 15 3.98 15 5 C9.72 5.66 4.44 6.32 -1 7 C0 5 0 5 3 4 C3 3.34 3 2.68 3 2 C2.01 1.34 1.02 0.68 0 0 Z " fill="#4E4E4E" transform="translate(404,25)"/>
<path d="M0 0 C13.2 0 26.4 0 40 0 C40 0.33 40 0.66 40 1 C32.41 1.33 24.82 1.66 17 2 C17.33 2.66 17.66 3.32 18 4 C12.06 3.67 6.12 3.34 0 3 C0 2.01 0 1.02 0 0 Z " fill="#989898" transform="translate(289,6)"/>
<path d="M0 0 C0 0.66 0 1.32 0 2 C-4.873261 3.5912689 -8.80790596 4.21192221 -14 4 C-14.33 2.68 -14.66 1.36 -15 0 C-4.44191344 -1.33257403 -4.44191344 -1.33257403 0 0 Z " fill="#646464" transform="translate(118,3)"/>
<path d="M0 0 C0.9178125 0.05220703 1.835625 0.10441406 2.78125 0.15820312 C5.02129261 0.2865389 7.26072975 0.42142597 9.5 0.5625 C9.5 2.2125 9.5 3.8625 9.5 5.5625 C9.17 4.5725 8.84 3.5825 8.5 2.5625 C4.045 3.0575 4.045 3.0575 -0.5 3.5625 C-0.5 3.2325 -0.5 2.9025 -0.5 2.5625 C-6.44 2.2325 -12.38 1.9025 -18.5 1.5625 C-18.5 1.2325 -18.5 0.9025 -18.5 0.5625 C-12.21187205 -0.42920242 -6.34227619 -0.40100147 0 0 Z " fill="#949494" transform="translate(112.5,88.4375)"/>
<path d="M0 0 C1.64666203 0.1135629 3.29236082 0.24117381 4.9375 0.375 C5.85402344 0.44460937 6.77054687 0.51421875 7.71484375 0.5859375 C8.84599609 0.79089844 8.84599609 0.79089844 10 1 C10.33 1.66 10.66 2.32 11 3 C9.7934375 3.433125 9.7934375 3.433125 8.5625 3.875 C5.8673532 4.73262568 5.8673532 4.73262568 5 7 C3.35 6.67 1.7 6.34 0 6 C-1.125 2.25 -1.125 2.25 0 0 Z " fill="#252525" transform="translate(401,55)"/>
<path d="M0 0 C1.32 0 2.64 0 4 0 C4 0.66 4 1.32 4 2 C4.66 2 5.32 2 6 2 C6 2.66 6 3.32 6 4 C-0.14778871 5.6277833 -5.64012196 6.20190089 -12 6 C-12 5.67 -12 5.34 -12 5 C-10.35 4.67 -8.7 4.34 -7 4 C-7.33 3.34 -7.66 2.68 -8 2 C-5.36 2 -2.72 2 0 2 C0 1.34 0 0.68 0 0 Z " fill="#CECECE" transform="translate(90,3)"/>
<path d="M0 0 C1.45823212 -0.0270043 2.91660675 -0.04639787 4.375 -0.0625 C5.18710937 -0.07410156 5.99921875 -0.08570313 6.8359375 -0.09765625 C9 0 9 0 11 1 C11 2.32 11 3.64 11 5 C7.37 5 3.74 5 0 5 C0 4.34 0 3.68 0 3 C0.66 2.67 1.32 2.34 2 2 C1.34 1.34 0.68 0.68 0 0 Z " fill="#959595" transform="translate(391,41)"/>
<path d="M0 0 C-0.99 0 -1.98 0 -3 0 C-3 0.99 -3 1.98 -3 3 C-5.31 3.66 -7.62 4.32 -10 5 C-10 5.66 -10 6.32 -10 7 C-12.31 6.67 -14.62 6.34 -17 6 C-16.67 5.01 -16.34 4.02 -16 3 C-14.0390625 2.0859375 -14.0390625 2.0859375 -11.625 1.375 C-10.83351563 1.13523437 -10.04203125 0.89546875 -9.2265625 0.6484375 C-8.49179687 0.43445313 -7.75703125 0.22046875 -7 0 C-3.86650268 -1.04449911 -3.01031744 -0.93423645 0 0 Z " fill="#B3B3B3" transform="translate(49,19)"/>
<path d="M0 0 C5.61 0 11.22 0 17 0 C14 3 14 3 10.42578125 3.29296875 C9.05438087 3.27309338 7.68313595 3.23741111 6.3125 3.1875 C5.61060547 3.17396484 4.90871094 3.16042969 4.18554688 3.14648438 C2.45670171 3.11120182 0.72825235 3.05739583 -1 3 C-0.67 2.01 -0.34 1.02 0 0 Z " fill="#B3B3B3" transform="translate(16,51)"/>
<path d="M0 0 C0.33 1.32 0.66 2.64 1 4 C3.31 4 5.62 4 8 4 C8 4.66 8 5.32 8 6 C6.37509046 6.02698189 4.75005367 6.04638757 3.125 6.0625 C1.76761719 6.07990234 1.76761719 6.07990234 0.3828125 6.09765625 C-2 6 -2 6 -4 5 C-4 3.68 -4 2.36 -4 1 C-2.68 0.67 -1.36 0.34 0 0 Z " fill="#9A9A9A" transform="translate(403,17)"/>
<path d="M0 0 C1.37478516 0.01740234 1.37478516 0.01740234 2.77734375 0.03515625 C3.69644531 0.04417969 4.61554688 0.05320312 5.5625 0.0625 C6.27277344 0.07410156 6.98304688 0.08570313 7.71484375 0.09765625 C7.71484375 0.75765625 7.71484375 1.41765625 7.71484375 2.09765625 C10.02484375 2.09765625 12.33484375 2.09765625 14.71484375 2.09765625 C14.71484375 2.42765625 14.71484375 2.75765625 14.71484375 3.09765625 C12.27704745 3.1516296 9.8404469 3.19131241 7.40234375 3.22265625 C6.3669043 3.24779297 6.3669043 3.24779297 5.31054688 3.2734375 C1.54348979 3.30983419 -0.06947329 3.24144489 -3.28515625 1.09765625 C-2.28515625 0.09765625 -2.28515625 0.09765625 0 0 Z " fill="#808080" transform="translate(242.28515625,7.90234375)"/>
<path d="M0 0 C8.05358138 -0.14525497 15.97875848 0.28586721 24 1 C24 1.33 24 1.66 24 2 C18.06 2.33 12.12 2.66 6 3 C6 2.67 6 2.34 6 2 C3.03 1.505 3.03 1.505 0 1 C0 0.67 0 0.34 0 0 Z " fill="#A7A7A7" transform="translate(50,8)"/>
<path d="M0 0 C0.99 0.33 1.98 0.66 3 1 C4.89470816 1.0685495 6.7916834 1.08480372 8.6875 1.0625 C9.68136719 1.05347656 10.67523438 1.04445312 11.69921875 1.03515625 C12.45847656 1.02355469 13.21773437 1.01195312 14 1 C13.67 1.99 13.34 2.98 13 4 C11.41705218 4.05437607 9.83355744 4.09296271 8.25 4.125 C7.36828125 4.14820313 6.4865625 4.17140625 5.578125 4.1953125 C2.8864142 3.99139502 1.30095026 3.36551721 -1 2 C-0.67 1.34 -0.34 0.68 0 0 Z M6 2 C6 2.33 6 2.66 6 3 C7.98 3 9.96 3 12 3 C12 2.67 12 2.34 12 2 C10.02 2 8.04 2 6 2 Z " fill="#CDCDCD" transform="translate(40,46)"/>
<path d="M0 0 C0.33 0.99 0.66 1.98 1 3 C-4.28 3.66 -9.56 4.32 -15 5 C-14 3 -14 3 -11 1 C-7.15110517 0.79006028 -3.68766192 0.81994818 0 2 C0 1.34 0 0.68 0 0 Z " fill="#9B9B9B" transform="translate(418,27)"/>
<path d="M0 0 C-0.99 0.33 -1.98 0.66 -3 1 C-3 1.66 -3 2.32 -3 3 C-8.94 3.495 -8.94 3.495 -15 4 C-14.67 3.01 -14.34 2.02 -14 1 C-9.27685687 0.22887459 -4.78478822 -0.09764874 0 0 Z " fill="#686868" transform="translate(56,44)"/>
<path d="M0 0 C5.61 0.33 11.22 0.66 17 1 C17 1.33 17 1.66 17 2 C11.06 2.33 5.12 2.66 -1 3 C-0.67 2.01 -0.34 1.02 0 0 Z " fill="#626262" transform="translate(9,58)"/>
<path d="M0 0 C4.62 0 9.24 0 14 0 C13.34 1.32 12.68 2.64 12 4 C10.68 4 9.36 4 8 4 C8 3.01 8 2.02 8 1 C5.36 1 2.72 1 0 1 C0 0.67 0 0.34 0 0 Z " fill="#ADADAD" transform="translate(17,68)"/>
<path d="M0 0 C1.95825873 -0.02694851 3.91662226 -0.04637218 5.875 -0.0625 C6.96554688 -0.07410156 8.05609375 -0.08570313 9.1796875 -0.09765625 C12 0 12 0 14 1 C14 1.66 14 2.32 14 3 C9.33333333 2.33333333 4.66666667 1.66666667 0 1 C0 0.67 0 0.34 0 0 Z " fill="#757575" transform="translate(45,35)"/>
<path d="M0 0 C2.97 0 5.94 0 9 0 C9.33 0.66 9.66 1.32 10 2 C5.98195309 2.84098656 2.98196457 3.05404945 -1 2 C-0.67 1.34 -0.34 0.68 0 0 Z " fill="#9C9C9C" transform="translate(46,15)"/>
<path d="M0 0 C0 0.66 0 1.32 0 2 C-4.95 2 -9.9 2 -15 2 C-15 1.34 -15 0.68 -15 0 C-4.44191344 -1.33257403 -4.44191344 -1.33257403 0 0 Z " fill="#D7D7D7" transform="translate(118,3)"/>
<path d="M0 0 C3.3 0.33 6.6 0.66 10 1 C10 1.66 10 2.32 10 3 C7.03 3 4.06 3 1 3 C0.67 2.01 0.34 1.02 0 0 Z " fill="#C2C2C2" transform="translate(47,38)"/>
<path d="M0 0 C0.99 0 1.98 0 3 0 C3.33 1.65 3.66 3.3 4 5 C2.35 5.33 0.7 5.66 -1 6 C-0.01 4.68 0.98 3.36 2 2 C1.34 2 0.68 2 0 2 C0 1.34 0 0.68 0 0 Z " fill="#A8A8A8" transform="translate(404,76)"/>
<path d="M0 0 C2 1 2 1 2 1 Z " fill="#989898" transform="translate(12,67)"/>
</svg>
