<svg xmlns="http://www.w3.org/2000/svg" width="419" height="104"><path fill="#040404" d="M289 6c23.44-.233 46.628-.008 70 2q2.194.18 4.387.357 5.7.462 11.397.953 2.19.188 4.38.37c2.03.172 4.058.355 6.086.539l3.516.31c3.269.476 6.14 1.33 9.234 2.471v2l6 2v4h7v2l-9 1 16 2 1 4c-15.636 2.696-31.176 4.806-47 6v3l2.992-.035 3.883-.028 3.867-.035C386 39 386 39 388 40c1.997.204 3.998.365 6 .5 5.778.389 5.778.389 8 1.5v4h4l-1 3-3 1 1 4 9 1 1 4-5 1v2l-6 3 1.715.734 2.223 1.016 2.214.984C410 69 410 69 410.844 71.051L411 73l-3 3c-.25 2.626-.25 2.626 0 5l-4 2v2c-4.21 3.186-8.888 4.261-13.926 5.484l-2.653.652c-9.183 2.17-18.443 3.542-27.795 4.75-2.824.365-5.646.75-8.468 1.137-14.933 2.012-29.71 3.183-44.79 2.915-3.417-.008-3.417-.008-6.958.59-3.157.437-5.702.422-8.848.034l-2.62-.308L286 100v-2l-3.008.007q-14.078.03-28.157.045-7.238.007-14.474.023-6.993.016-13.985.02-2.659.003-5.318.01c-15.988.048-15.988.048-23.442-.852-6.49-.627-13.046-.626-19.561-.788l-4.867-.13q-6.358-.17-12.715-.33-6.506-.17-13.012-.343Q134.73 95.325 122 95l-1-4-17 3v1H39v-2l-1.896-.076q-4.24-.176-8.479-.362l-2.984-.119-2.852-.127-2.634-.11C18 92 18 92 16 91v-3c6.906-.904 13.637-1.133 20.598-1.098l3.257.005c3.402.005 6.805.018 10.208.03q3.48.009 6.958.014 8.49.017 16.979.049v2q4.563.04 9.125.063l2.535.025c7.479.028 14.888-.486 22.34-1.088-22.329-1.442-44.63-2.46-67-3l-1-3h-3v-2l25-3-9-1-1-1a76 76 0 0 0-4.184-.684l-2.56-.373q-2.687-.38-5.375-.75l-2.565-.377-2.36-.33C33 72 33 72 31 70l-2 2h-4v-3h-8l-1-2h7v-4h2v3l7-3c-3.35-.754-6.431-1.12-9.863-1.098l-2.686.01-2.764.026-2.822.013Q10.432 61.97 7 62v-3c7.703-2.137 15.02-3.475 23-4l-15-1 1-3 1.988-.076q4.444-.176 8.887-.361l3.129-.12 2.988-.127 2.761-.11c2.282-.072 2.282-.072 4.247-1.206v-3c5.318-1.242 10.582-2.308 16-3v-1l-8-1-1-3 5-1-3.425-.06a3231 3231 0 0 1-12.59-.257q-2.724-.058-5.448-.105c-2.611-.046-5.223-.104-7.834-.164l-2.456-.035c-3.86-.1-6.975-.19-10.247-2.379l4-1-2-1v-2h12v-2l8-2 1-4c1.96-.977 1.96-.977 4.375-1.625 3.107-.86 4.876-1.542 7.625-3.375l1-2c1.732-.386 1.732-.386 4.019-.578l2.595-.233 2.843-.224 2.946-.253q3.113-.266 6.227-.517c3.104-.251 6.207-.516 9.31-.783l6.08-.51 2.726-.23c16.08-1.291 32.157-1.817 48.284-1.932q4.49-.034 8.981-.077 11.116-.102 22.232-.19 9.478-.075 18.956-.165 4.417-.038 8.834-.068l5.385-.05 2.468-.013c3.536-.04 6.711-.229 10.114-1.177v1l6 1V8h6v1c3.146.029 6.292.047 9.438.063l2.72.025 2.588.01 2.396.016c1.874.091 1.874.091 2.858-1.114a65 65 0 0 1 4.336-.114h2.79l3.034.016 3.09.005c3.27.005 6.542.018 9.813.03q3.317.009 6.634.014Q277.85 7.968 286 8v2l3-1zm92 8v1h5v-1zM17 32v1h5v-1zm29 16v1h6v-1zm74 40 2 1v2l3.438-.437c4.516-.566 9.037-1.07 13.562-1.563v-1z"/><path fill="#999" d="M74 85c15.18-.217 30.333.44 45.5 1l8.02.29q9.74.35 19.48.71v3l-3.437-.496c-4.537-.567-8.997-.618-13.563-.567l-2.348.014q-2.826.02-5.652.049v5l-1-3-17 3v1H39v-2l-1.896-.076q-4.24-.176-8.479-.362l-2.984-.119-2.852-.127-2.634-.11C18 92 18 92 16 91v-3c6.906-.904 13.637-1.133 20.598-1.098l3.257.005c3.402.005 6.805.018 10.208.03q3.48.009 6.958.014 8.49.017 16.979.049v2q4.563.04 9.125.063l2.535.025c7.54.028 14.75-.546 22.34-1.088l-34-2z"/><path fill="#C2C2C2" d="m204 8 1.625.438c2.774.657 5.56 1.114 8.375 1.562V8h6v1c3.146.029 6.292.047 9.438.063l2.72.025 2.588.01 2.396.016c1.874.091 1.874.091 2.858-1.114a65 65 0 0 1 4.336-.114h2.79l3.034.016 3.09.005c3.27.005 6.542.018 9.813.03q3.317.009 6.634.014Q277.85 7.968 286 8v2h19v1q-24.82.2-49.64.391-11.533.09-23.066.182-13.354.106-26.708.208l-2.207.017c-20.98.159-41.959.258-62.94.19-25.474-.378-25.474-.378-50.822 1.543-3.749.486-7.34.568-11.117.531l-3.719-.027L72 14v-1q4.374-.478 8.75-.937l2.383-.264c16.921-1.757 33.949-1.967 50.945-2.115l6.102-.063q7.92-.082 15.841-.153 8.127-.078 16.252-.161Q188.136 9.147 204 9z"/><path fill="#878787" d="m136.215 2.844 3.3.024c3.496.031 6.99.079 10.485.132l3.465.05c8.033.12 16.065.281 24.097.45l7.174.145Q193.37 3.818 202 4l1 3q-7.65.435-15.302.854-2.59.144-5.18.292c-16.912.964-33.657.98-50.58.354l-4.104-.145Q122.917 8.182 118 8V5c6.146-2.174 11.735-2.25 18.215-2.156"/><path fill="#080808" d="M74 88v2h7v1h-7v2h10v1H43v-1l-26-3v-1q8.8-.217 17.603-.427l5.97-.146C51.716 88.153 62.85 87.914 74 88"/><path fill="#868686" d="M214 8h6v1c3.146.029 6.292.047 9.438.063l2.72.025 2.588.01 2.396.016c1.874.091 1.874.091 2.858-1.114a65 65 0 0 1 4.336-.114h2.79l3.034.016 3.09.005c3.27.005 6.542.018 9.813.03q3.317.009 6.634.014Q277.85 7.968 286 8v2h19v1h-92z"/><path fill="#3A3A3A" d="M90 3h4v2h2v2c-7.736 2.01-15.497 2.759-23.436 3.433-2.23.19-4.458.394-6.687.598-8.99.799-17.845 1.147-26.877.969v-2c7.047-1.455 13.969-2.326 21.152-2.754 2.704-.15 2.704-.15 4.687-.742 2.555-.596 4.962-.718 7.583-.82l3.105-.127 3.223-.12 3.27-.13Q86.01 5.148 90 5z"/><path fill="#B3B3B3" d="M289 96v2q9.147-.18 18.292-.372 3.1-.065 6.2-.125c12.524-.246 25.01-.643 37.508-1.503v1c-27.933 3.414-27.933 3.414-41.692 3.064-4.57-.115-8.769.274-13.308.936-2.871-.121-2.871-.121-5.437-.437l-2.622-.31L286 100v-2h-81v-1c28.006-.78 55.983-1.144 84-1"/><path fill="#9A9A9A" d="M368 10c9.93-.275 19.205.463 29 2l1 3 5 1v1c-8.957.132-16.472-.157-25-3v-2l-10-1z"/><path fill="#AAA" d="M394 33v1l-22 2v3h14v1l-31 1v-1l15-2-8-1v-3c10.685-.678 21.29-1.155 32-1"/><path fill="#888" d="M74 9v1c-11.7 1.26-23.219 2.356-35 2v-2c11.904-2.579 22.925-2.075 35-1"/><path fill="#A1A1A1" d="m22.563 31.75 3.94-.016c4.63.352 6.698 1.733 10.497 4.266-3.75.058-7.5.094-11.25.125l-3.223.05-3.105.02-2.857.032C13.9 35.991 12.281 35.357 10 34c4.268-2.073 7.847-2.269 12.563-2.25"/><path fill="#4E4E4E" d="M404 25c5.439-.218 9.87-.104 15 2v3l-16 2c1-2 1-2 4-3v-2z"/><path fill="#989898" d="M289 6h40v1l-23 1 1 2-18-1z"/><path fill="#646464" d="M118 3v2c-4.873 1.591-8.808 2.212-14 2l-1-4c10.558-1.333 10.558-1.333 15 0"/><path fill="#949494" d="m112.5 88.438 2.781.158q3.36.192 6.719.404v5l-1-3-9 1v-1l-18-1v-1c6.288-.992 12.158-.964 18.5-.562"/><path fill="#252525" d="M401 55q2.47.172 4.938.375c.916.07 1.833.14 2.777.21L411 56l1 2-2.437.875c-2.696.858-2.696.858-3.563 3.125l-5-1c-1.125-3.75-1.125-3.75 0-6"/><path fill="#CECECE" d="M90 3h4v2h2v2c-6.148 1.628-11.64 2.202-18 2V8l5-1-1-2h8z"/><path fill="#959595" d="M391 41q2.188-.04 4.375-.062l2.46-.036C400 41 400 41 402 42v4h-11v-2l2-1z"/><path fill="#B3B3B3" d="M49 19h-3v3l-7 2v2l-7-1 1-3c1.96-.914 1.96-.914 4.375-1.625l2.398-.727L42 19c3.133-1.044 3.99-.934 7 0M16 51h17c-3 3-3 3-6.574 3.293q-2.058-.03-4.113-.105l-2.127-.042c-1.73-.035-3.458-.089-5.186-.146z"/><path fill="#9A9A9A" d="m403 17 1 4h7v2q-2.437.039-4.875.063l-2.742.035C401 23 401 23 399 22v-4z"/><path fill="gray" d="m242.285 7.902 2.778.035 2.785.028L250 8v2h7v1a788 788 0 0 1-7.312.125l-2.092.05c-3.767.037-5.38-.031-8.596-2.175 1-1 1-1 3.285-1.098"/><path fill="#A7A7A7" d="M50 8c8.054-.145 15.979.286 24 1v1l-18 1v-1l-6-1z"/><path fill="#CDCDCD" d="m40 46 3 1c1.895.069 3.792.085 5.688.063l3.011-.028L54 47l-1 3c-1.583.054-3.166.093-4.75.125l-2.672.07c-2.692-.204-4.277-.83-6.578-2.195zm6 2v1h6v-1z"/><path fill="#9B9B9B" d="m418 27 1 3-16 2c1-2 1-2 4-4 3.849-.21 7.312-.18 11 1z"/><path fill="#686868" d="m56 44-3 1v2l-12 1 1-3a75.6 75.6 0 0 1 14-1"/><path fill="#626262" d="m9 58 17 1v1L8 61z"/><path fill="#ADADAD" d="M17 68h14l-2 4h-4v-3h-8z"/><path fill="#757575" d="M45 35q2.938-.04 5.875-.062l3.305-.036C57 35 57 35 59 36v2l-14-2z"/><path fill="#9C9C9C" d="M46 15h9l1 2c-4.018.841-7.018 1.054-11 0z"/><path fill="#D7D7D7" d="M118 3v2h-15V3c10.558-1.333 10.558-1.333 15 0"/><path fill="#C2C2C2" d="m47 38 10 1v2h-9z"/><path fill="#A8A8A8" d="M404 76h3l1 5-5 1 3-4h-2z"/><path fill="#989898" d="m12 67 2 1Z"/></svg>