<svg version="1.1" xmlns="http://www.w3.org/2000/svg" viewBox="0 0 53.38971450441113 61.95416036810195" width="53.38971450441113" height="61.95416036810195" class="excalidraw-svg">
  <!-- svg-source:excalidraw -->
  
  <defs>
    <style class="style-fonts">
      @font-face {
        font-family: "Virgil";
        src: url("https://excalidraw.com/Virgil.woff2");
      }
      @font-face {
        font-family: "Cascadia";
        src: url("https://excalidraw.com/Cascadia.woff2");
      }
      @font-face {
        font-family: "Assistant";
        src: url("https://excalidraw.com/Assistant-Regular.woff2");
      }
    </style>
    
  </defs>
  <g stroke-linecap="round" transform="translate(10.04017574183581 10.031931832077248) rotate(0.10998537523243705 16.654681510369755 20.945148351973728)"><path d="M8.33 0 C12.83 0, 17.34 0, 24.98 0 C30.53 0, 33.31 2.78, 33.31 8.33 C33.31 17.92, 33.31 27.5, 33.31 33.56 C33.31 39.11, 30.53 41.89, 24.98 41.89 C21.6 41.89, 18.22 41.89, 8.33 41.89 C2.78 41.89, 0 39.11, 0 33.56 C0 28.26, 0 22.95, 0 8.33 C0 2.78, 2.78 0, 8.33 0" stroke="none" stroke-width="0" fill="#0ea5e9"/><path d="M8.33 0 C14.93 0, 21.53 0, 24.98 0 M8.33 0 C14.28 0, 20.23 0, 24.98 0 M24.98 0 C30.53 0, 33.31 2.78, 33.31 8.33 M24.98 0 C30.53 0, 33.31 2.78, 33.31 8.33 M33.31 8.33 C33.31 15.6, 33.31 22.87, 33.31 33.56 M33.31 8.33 C33.31 15.63, 33.31 22.92, 33.31 33.56 M33.31 33.56 C33.31 39.11, 30.53 41.89, 24.98 41.89 M33.31 33.56 C33.31 39.11, 30.53 41.89, 24.98 41.89 M24.98 41.89 C20.16 41.89, 15.33 41.89, 8.33 41.89 M24.98 41.89 C21.08 41.89, 17.19 41.89, 8.33 41.89 M8.33 41.89 C2.78 41.89, 0 39.11, 0 33.56 M8.33 41.89 C2.78 41.89, 0 39.11, 0 33.56 M0 33.56 C0 25.66, 0 17.77, 0 8.33 M0 33.56 C0 24.92, 0 16.28, 0 8.33 M0 8.33 C0 2.78, 2.78 0, 8.33 0 M0 8.33 C0 2.78, 2.78 0, 8.33 0" stroke="#0ea5e9" stroke-width="0.5" fill="none"/></g><g stroke-linecap="round"><g transform="translate(18.368006167751446 19.293434820686798) rotate(0 9.006590382955437 0.11957725263528118)"><path d="M0 0 C3 0.04, 15.01 0.2, 18.01 0.24 M0 0 C3 0.04, 15.01 0.2, 18.01 0.24" stroke="#ffffff" stroke-width="4" fill="none"/></g></g><mask/><g stroke-linecap="round"><g transform="translate(18.233304446035618 28.124797734758204) rotate(0 2.6258629908857074 -0.03376124943565628)"><path d="M-0.07 0.06 C0.83 0, 4.72 -0.3, 5.58 -0.36 M-0.53 -0.22 C0.33 -0.24, 4.59 -0.09, 5.48 -0.06" stroke="#ffffff" stroke-width="4" fill="none"/></g></g><mask/><g stroke-linecap="round"><g transform="translate(31.54765747158035 27.884830542343707) rotate(0 2.6136853994917146 -0.023236149567082975)"><path d="M0.26 -0.18 C1.21 -0.19, 4.65 -0.4, 5.48 -0.37 M-0.03 0.5 C0.9 0.55, 4.49 -0.07, 5.34 -0.08" stroke="#1e1e1e" stroke-width="4" fill="none"/></g></g><mask/><g stroke-linecap="round" transform="translate(18.522746572316464 34.09123861196122) rotate(0 8.693300301359614 3.3146437702078515)"><path d="M1.66 0 C4.8 0.69, 6.34 1.46, 15.73 0 C15.91 1.65, 15.85 -1.29, 17.39 1.66 C17.43 2.5, 17.11 3.08, 17.39 4.97 C15.93 3.61, 14.9 6.58, 15.73 6.63 C8.91 8.08, 4.09 4.92, 1.66 6.63 C0.28 6.2, 1.07 5.03, 0 4.97 C0.14 3.54, -0.08 2.82, 0 1.66 C-2.11 -0.58, -0.54 -2.24, 1.66 0" stroke="none" stroke-width="0" fill="#fff"/><path d="M1.66 0 C6.65 -0.52, 12.11 -0.64, 15.73 0 M1.66 0 C4.95 0.03, 7.9 0.12, 15.73 0 M15.73 0 C17.5 -0.97, 18.2 1.53, 17.39 1.66 M15.73 0 C16.19 1.08, 18.16 -0.56, 17.39 1.66 M17.39 1.66 C17.5 2.84, 17.27 3.98, 17.39 4.97 M17.39 1.66 C17.46 2.5, 17.37 3.49, 17.39 4.97 M17.39 4.97 C18.05 6.71, 16.79 7.21, 15.73 6.63 M17.39 4.97 C16.34 5.16, 16.79 5.84, 15.73 6.63 M15.73 6.63 C12.1 7.07, 9.7 5.95, 1.66 6.63 M15.73 6.63 C10.72 6.6, 5.62 6.78, 1.66 6.63 M1.66 6.63 C1.25 7.24, -0.7 5.79, 0 4.97 M1.66 6.63 C1.4 5.87, 0.34 7.11, 0 4.97 M0 4.97 C0.04 4.01, -0.01 3.26, 0 1.66 M0 4.97 C0.05 3.7, 0.04 2.46, 0 1.66 M0 1.66 C-0.35 0.16, 0.96 -0.05, 1.66 0 M0 1.66 C-0.96 0.34, -0.39 0.17, 1.66 0" stroke="#ffffff" stroke-width="4" fill="none"/></g><g stroke-linecap="round" transform="translate(20.680036124123944 35.70536691088955) rotate(0 2.371884643573594 1.4888185954204118)"><path d="M0 0 L4.74 0 L4.74 2.98 L0 2.98" stroke="none" stroke-width="0" fill="#1e1e1e"/><path d="M0 0 C1.65 0, 3.3 0, 4.74 0 M0 0 C1.86 0, 3.72 0, 4.74 0 M4.74 0 C4.74 1.18, 4.74 2.36, 4.74 2.98 M4.74 0 C4.74 1.06, 4.74 2.13, 4.74 2.98 M4.74 2.98 C3.27 2.98, 1.79 2.98, 0 2.98 M4.74 2.98 C3.61 2.98, 2.47 2.98, 0 2.98 M0 2.98 C0 2.29, 0 1.61, 0 0 M0 2.98 C0 2.36, 0 1.74, 0 0" stroke="#1e1e1e" stroke-width="4" fill="none"/></g><g stroke-linecap="round"><g transform="translate(27.47820018382845 47.70583442493398) rotate(0 5.0633217905806305 0)"><path d="M0 0 C3.2 0, 6.4 0, 10.13 0 M0 0 C2.73 0, 5.46 0, 10.13 0" stroke="#1e1e1e" stroke-width="1" fill="none"/></g></g><mask/></svg>