<svg version="1.1" xmlns="http://www.w3.org/2000/svg" viewBox="0 0 394.58429530119633 259.0965689960459" width="394.58429530119633" height="259.0965689960459" class="excalidraw-svg">
  <!-- svg-source:excalidraw -->
  
  <defs>
    <style class="style-fonts">
      @font-face {
        font-family: "Virgil";
        src: url("https://excalidraw.com/Virgil.woff2");
      }
      @font-face {
        font-family: "Cascadia";
        src: url("https://excalidraw.com/Cascadia.woff2");
      }
      @font-face {
        font-family: "Assistant";
        src: url("https://excalidraw.com/Assistant-Regular.woff2");
      }
    </style>
    
  </defs>
  <g stroke-linecap="round" transform="translate(69.85713670979521 33.81902368411352) rotate(18.236874062316982 75.68728637695312 75.68728637695312)"><path d="M97.66 3.9 C107.86 6.03, 119.29 13.24, 127.3 20.66 C135.3 28.08, 141.83 38.15, 145.7 48.42 C149.56 58.69, 151.1 71.33, 150.48 82.28 C149.86 93.22, 147.3 104.61, 142 114.08 C136.7 123.55, 127.88 132.83, 118.68 139.08 C109.48 145.33, 97.8 150.22, 86.81 151.56 C75.82 152.89, 63.23 150.45, 52.74 147.1 C42.25 143.75, 31.92 138.68, 23.88 131.45 C15.83 124.23, 8.34 113.96, 4.47 103.74 C0.6 93.53, -0.42 81.08, 0.64 70.16 C1.69 59.24, 5.3 47.62, 10.8 38.22 C16.3 28.81, 24.5 19.95, 33.63 13.76 C42.77 7.57, 53.81 2.28, 65.6 1.08 C77.39 -0.11, 96.94 5.14, 104.36 6.57 C111.78 8.01, 110.72 8.6, 110.14 9.68 M107.34 6.03 C117.7 9.18, 128.21 18.76, 135.05 27.16 C141.89 35.56, 146.03 45.96, 148.37 56.42 C150.71 66.89, 151.42 79.09, 149.1 89.95 C146.77 100.8, 140.78 112.49, 134.44 121.55 C128.09 130.61, 120.62 139.48, 111.05 144.28 C101.48 149.09, 88.22 150.37, 77.02 150.38 C65.82 150.38, 53.74 148.72, 43.84 144.3 C33.95 139.88, 24.47 132.05, 17.67 123.84 C10.86 115.64, 5.58 105.5, 3.01 95.06 C0.44 84.61, -0.08 71.91, 2.25 61.19 C4.57 50.48, 10.26 39.47, 16.98 30.77 C23.7 22.06, 33.12 14.14, 42.58 8.95 C52.04 3.77, 63.18 0.08, 73.74 -0.36 C84.31 -0.81, 100.67 5.1, 105.99 6.29 C111.3 7.49, 106.07 5.63, 105.62 6.8" stroke="none" stroke-width="0" fill="#1971c2"/><path d="M99.97 4.41 C110.02 6.94, 120.41 14.94, 128.19 22.52 C135.98 30.1, 142.81 39.72, 146.68 49.89 C150.55 60.06, 152.48 72.63, 151.39 83.53 C150.29 94.44, 146.04 105.81, 140.1 115.29 C134.16 124.77, 125.07 134.43, 115.73 140.42 C106.39 146.41, 95.02 150.07, 84.05 151.22 C73.08 152.36, 60.22 151.11, 49.9 147.3 C39.58 143.49, 29.88 136.02, 22.13 128.37 C14.39 120.73, 6.89 111.76, 3.41 101.44 C-0.07 91.11, 0.08 77.26, 1.27 66.43 C2.46 55.6, 4.87 45.72, 10.57 36.45 C16.27 27.17, 26.06 16.69, 35.49 10.78 C44.91 4.88, 55.19 1.64, 67.12 1.02 C79.06 0.39, 99.46 5.18, 107.07 7.03 C114.68 8.88, 113.34 10.87, 112.79 12.12 M65.55 -0.17 C75.73 -2.41, 89 0.49, 99.63 4.19 C110.27 7.89, 121.6 14.48, 129.37 22.02 C137.14 29.56, 142.61 39.21, 146.28 49.46 C149.95 59.7, 152.44 72.68, 151.39 83.49 C150.33 94.3, 145.66 104.83, 139.96 114.31 C134.27 123.8, 126.39 134.12, 117.2 140.39 C108.01 146.65, 95.58 150.55, 84.81 151.9 C74.05 153.25, 62.7 151.99, 52.62 148.48 C42.54 144.97, 32.15 138.52, 24.34 130.85 C16.53 123.18, 9.87 112.76, 5.76 102.45 C1.65 92.14, -1.31 80.06, -0.33 68.99 C0.64 57.92, 5.92 45.71, 11.6 36.05 C17.28 26.39, 24.54 16.94, 33.74 11.04 C42.94 5.14, 61.48 2.09, 66.8 0.64 C72.13 -0.82, 65.57 1.2, 65.69 2.3" stroke="#1971c2" stroke-width="4" fill="none"/></g><g transform="translate(164.77906623479777 35.663046321828006) rotate(18.236874062316982 9.083343505859375 -11.20355224609375)" stroke="none"><path fill="#1971c2" d="M -5.14,0.19 Q -5.14,0.19 -5.28,-1.98 -5.42,-4.16 -5.90,-6.50 -6.38,-8.84 -6.97,-11.05 -7.55,-13.27 -7.99,-15.58 -8.43,-17.89 -8.30,-20.16 -8.16,-22.44 -6.89,-24.57 -5.62,-26.70 -3.75,-27.99 -1.87,-29.29 0.46,-29.55 2.80,-29.81 6.73,-29.74 10.67,-29.68 13.11,-29.73 15.56,-29.79 17.81,-29.68 20.06,-29.58 23.09,-27.05 26.12,-24.52 26.55,-22.41 26.97,-20.31 27.07,-16.22 27.16,-12.13 27.11,-9.84 27.06,-7.54 27.03,-3.54 27.01,0.46 26.84,1.52 26.67,2.58 26.17,3.53 25.67,4.48 24.89,5.22 24.11,5.95 23.14,6.41 22.16,6.86 21.10,6.98 20.03,7.10 18.98,6.87 17.93,6.64 17.01,6.09 16.09,5.53 15.39,4.72 14.70,3.90 14.30,2.90 13.90,1.91 13.84,0.84 13.78,-0.23 14.06,-1.26 14.35,-2.30 14.95,-3.19 15.55,-4.08 16.41,-4.73 17.26,-5.38 18.28,-5.72 19.29,-6.07 20.37,-6.07 21.44,-6.07 22.46,-5.73 23.48,-5.39 24.33,-4.74 25.19,-4.09 25.79,-3.20 26.39,-2.32 26.68,-1.28 26.97,-0.25 26.92,0.81 26.86,1.89 26.46,2.88 26.07,3.88 25.37,4.70 24.68,5.52 23.76,6.07 22.84,6.63 21.79,6.86 20.75,7.09 19.68,6.98 18.61,6.87 17.64,6.42 16.66,5.97 15.88,5.23 15.10,4.49 14.60,3.55 14.09,2.60 13.92,1.54 13.74,0.48 13.74,0.48 13.74,0.48 13.70,-3.48 13.65,-7.45 13.48,-11.70 13.30,-15.94 13.06,-18.29 12.81,-20.63 15.29,-18.42 17.76,-16.20 15.58,-16.30 13.40,-16.39 9.92,-16.36 6.44,-16.33 3.49,-16.37 0.54,-16.41 2.43,-17.56 4.33,-18.71 2.32,-17.51 0.32,-16.31 2.22,-18.02 4.12,-19.74 4.18,-17.49 4.25,-15.25 4.44,-12.91 4.63,-10.58 4.86,-7.57 5.08,-4.57 5.11,-2.38 5.14,-0.19 5.09,0.41 5.04,1.03 4.84,1.62 4.64,2.21 4.31,2.73 3.98,3.26 3.53,3.69 3.08,4.11 2.54,4.42 2.00,4.73 1.41,4.90 0.81,5.08 0.19,5.10 -0.42,5.12 -1.03,5.00 -1.63,4.87 -2.19,4.61 -2.75,4.34 -3.23,3.95 -3.71,3.55 -4.08,3.06 -4.46,2.56 -4.70,1.99 -4.94,1.42 -5.04,0.81 -5.14,0.19 -5.14,0.19 L -5.14,0.19 Z"/></g><g transform="translate(198.04797376452075 54.16534019939763) rotate(42.580252935757436 9.083343505859375 -11.20355224609375)" stroke="none"><path fill="#1971c2" d="M -5.14,0.19 Q -5.14,0.19 -5.28,-1.98 -5.42,-4.16 -5.90,-6.50 -6.38,-8.84 -6.97,-11.05 -7.55,-13.27 -7.99,-15.58 -8.43,-17.89 -8.30,-20.16 -8.16,-22.44 -6.89,-24.57 -5.62,-26.70 -3.75,-27.99 -1.87,-29.29 0.46,-29.55 2.80,-29.81 6.73,-29.74 10.67,-29.68 13.11,-29.73 15.56,-29.79 17.81,-29.68 20.06,-29.58 23.09,-27.05 26.12,-24.52 26.55,-22.41 26.97,-20.31 27.07,-16.22 27.16,-12.13 27.11,-9.84 27.06,-7.54 27.03,-3.54 27.01,0.46 26.84,1.52 26.67,2.58 26.17,3.53 25.67,4.48 24.89,5.22 24.11,5.95 23.14,6.41 22.16,6.86 21.10,6.98 20.03,7.10 18.98,6.87 17.93,6.64 17.01,6.09 16.09,5.53 15.39,4.72 14.70,3.90 14.30,2.90 13.90,1.91 13.84,0.84 13.78,-0.23 14.06,-1.26 14.35,-2.30 14.95,-3.19 15.55,-4.08 16.41,-4.73 17.26,-5.38 18.28,-5.72 19.29,-6.07 20.37,-6.07 21.44,-6.07 22.46,-5.73 23.48,-5.39 24.33,-4.74 25.19,-4.09 25.79,-3.20 26.39,-2.32 26.68,-1.28 26.97,-0.25 26.92,0.81 26.86,1.89 26.46,2.88 26.07,3.88 25.37,4.70 24.68,5.52 23.76,6.07 22.84,6.63 21.79,6.86 20.75,7.09 19.68,6.98 18.61,6.87 17.64,6.42 16.66,5.97 15.88,5.23 15.10,4.49 14.60,3.55 14.09,2.60 13.92,1.54 13.74,0.48 13.74,0.48 13.74,0.48 13.70,-3.48 13.65,-7.45 13.48,-11.70 13.30,-15.94 13.06,-18.29 12.81,-20.63 15.29,-18.42 17.76,-16.20 15.58,-16.30 13.40,-16.39 9.92,-16.36 6.44,-16.33 3.49,-16.37 0.54,-16.41 2.43,-17.56 4.33,-18.71 2.32,-17.51 0.32,-16.31 2.22,-18.02 4.12,-19.74 4.18,-17.49 4.25,-15.25 4.44,-12.91 4.63,-10.58 4.86,-7.57 5.08,-4.57 5.11,-2.38 5.14,-0.19 5.09,0.41 5.04,1.03 4.84,1.62 4.64,2.21 4.31,2.73 3.98,3.26 3.53,3.69 3.08,4.11 2.54,4.42 2.00,4.73 1.41,4.90 0.81,5.08 0.19,5.10 -0.42,5.12 -1.03,5.00 -1.63,4.87 -2.19,4.61 -2.75,4.34 -3.23,3.95 -3.71,3.55 -4.08,3.06 -4.46,2.56 -4.70,1.99 -4.94,1.42 -5.04,0.81 -5.14,0.19 -5.14,0.19 L -5.14,0.19 Z"/></g><g transform="translate(222.05009289646267 89.42552436625692) rotate(66.30165705058293 9.083343505859375 -11.20355224609375)" stroke="none"><path fill="#1971c2" d="M -5.14,0.19 Q -5.14,0.19 -5.28,-1.98 -5.42,-4.16 -5.90,-6.50 -6.38,-8.84 -6.97,-11.05 -7.55,-13.27 -7.99,-15.58 -8.43,-17.89 -8.30,-20.16 -8.16,-22.44 -6.89,-24.57 -5.62,-26.70 -3.75,-27.99 -1.87,-29.29 0.46,-29.55 2.80,-29.81 6.73,-29.74 10.67,-29.68 13.11,-29.73 15.56,-29.79 17.81,-29.68 20.06,-29.58 23.09,-27.05 26.12,-24.52 26.55,-22.41 26.97,-20.31 27.07,-16.22 27.16,-12.13 27.11,-9.84 27.06,-7.54 27.03,-3.54 27.01,0.46 26.84,1.52 26.67,2.58 26.17,3.53 25.67,4.48 24.89,5.22 24.11,5.95 23.14,6.41 22.16,6.86 21.10,6.98 20.03,7.10 18.98,6.87 17.93,6.64 17.01,6.09 16.09,5.53 15.39,4.72 14.70,3.90 14.30,2.90 13.90,1.91 13.84,0.84 13.78,-0.23 14.06,-1.26 14.35,-2.30 14.95,-3.19 15.55,-4.08 16.41,-4.73 17.26,-5.38 18.28,-5.72 19.29,-6.07 20.37,-6.07 21.44,-6.07 22.46,-5.73 23.48,-5.39 24.33,-4.74 25.19,-4.09 25.79,-3.20 26.39,-2.32 26.68,-1.28 26.97,-0.25 26.92,0.81 26.86,1.89 26.46,2.88 26.07,3.88 25.37,4.70 24.68,5.52 23.76,6.07 22.84,6.63 21.79,6.86 20.75,7.09 19.68,6.98 18.61,6.87 17.64,6.42 16.66,5.97 15.88,5.23 15.10,4.49 14.60,3.55 14.09,2.60 13.92,1.54 13.74,0.48 13.74,0.48 13.74,0.48 13.70,-3.48 13.65,-7.45 13.48,-11.70 13.30,-15.94 13.06,-18.29 12.81,-20.63 15.29,-18.42 17.76,-16.20 15.58,-16.30 13.40,-16.39 9.92,-16.36 6.44,-16.33 3.49,-16.37 0.54,-16.41 2.43,-17.56 4.33,-18.71 2.32,-17.51 0.32,-16.31 2.22,-18.02 4.12,-19.74 4.18,-17.49 4.25,-15.25 4.44,-12.91 4.63,-10.58 4.86,-7.57 5.08,-4.57 5.11,-2.38 5.14,-0.19 5.09,0.41 5.04,1.03 4.84,1.62 4.64,2.21 4.31,2.73 3.98,3.26 3.53,3.69 3.08,4.11 2.54,4.42 2.00,4.73 1.41,4.90 0.81,5.08 0.19,5.10 -0.42,5.12 -1.03,5.00 -1.63,4.87 -2.19,4.61 -2.75,4.34 -3.23,3.95 -3.71,3.55 -4.08,3.06 -4.46,2.56 -4.70,1.99 -4.94,1.42 -5.04,0.81 -5.14,0.19 -5.14,0.19 L -5.14,0.19 Z"/></g><g transform="translate(225.0534100987283 129.75651253685783) rotate(96.67628213415381 9.19531330508903 -11.20355224609375)" stroke="none"><path fill="#1971c2" d="M -5.12,0.20 Q -5.12,0.20 -5.26,-1.98 -5.40,-4.16 -5.89,-6.49 -6.37,-8.83 -6.96,-11.04 -7.54,-13.25 -7.99,-15.57 -8.43,-17.89 -8.29,-20.17 -8.15,-22.46 -6.87,-24.58 -5.60,-26.71 -3.72,-28.00 -1.85,-29.29 0.50,-29.55 2.85,-29.81 6.82,-29.74 10.79,-29.67 13.26,-29.73 15.73,-29.78 17.99,-29.68 20.25,-29.59 23.29,-27.06 26.33,-24.54 26.76,-22.43 27.19,-20.32 27.29,-16.22 27.38,-12.13 27.33,-9.84 27.28,-7.54 27.26,-3.54 27.23,0.46 27.06,1.52 26.89,2.58 26.39,3.53 25.89,4.47 25.11,5.21 24.33,5.95 23.36,6.41 22.39,6.86 21.32,6.98 20.25,7.09 19.20,6.87 18.16,6.64 17.24,6.08 16.32,5.53 15.62,4.72 14.92,3.90 14.52,2.90 14.12,1.91 14.07,0.84 14.01,-0.23 14.29,-1.26 14.58,-2.30 15.18,-3.18 15.78,-4.07 16.63,-4.73 17.48,-5.38 18.50,-5.72 19.52,-6.06 20.59,-6.07 21.66,-6.07 22.68,-5.73 23.70,-5.39 24.55,-4.74 25.41,-4.09 26.01,-3.20 26.62,-2.32 26.91,-1.28 27.19,-0.25 27.14,0.81 27.08,1.89 26.69,2.88 26.29,3.88 25.60,4.70 24.90,5.52 23.98,6.07 23.07,6.63 22.02,6.86 20.97,7.09 19.90,6.98 18.84,6.86 17.86,6.41 16.89,5.97 16.11,5.23 15.33,4.49 14.82,3.54 14.32,2.60 14.14,1.54 13.97,0.48 13.97,0.48 13.97,0.48 13.92,-3.48 13.88,-7.45 13.70,-11.69 13.53,-15.94 13.28,-18.28 13.03,-20.61 14.38,-18.47 15.73,-16.32 13.26,-16.37 10.79,-16.43 8.66,-16.38 6.53,-16.34 3.54,-16.37 0.55,-16.41 2.44,-17.55 4.33,-18.69 2.33,-17.50 0.32,-16.30 2.22,-18.02 4.12,-19.74 4.19,-17.50 4.25,-15.26 4.45,-12.92 4.64,-10.59 4.87,-7.58 5.11,-4.57 5.13,-2.38 5.16,-0.20 5.11,0.41 5.06,1.03 4.86,1.62 4.66,2.21 4.33,2.73 4.00,3.26 3.55,3.68 3.10,4.11 2.57,4.42 2.03,4.73 1.43,4.90 0.84,5.08 0.22,5.10 -0.39,5.12 -1.00,5.00 -1.61,4.87 -2.17,4.61 -2.73,4.34 -3.21,3.95 -3.69,3.56 -4.06,3.06 -4.43,2.56 -4.68,1.99 -4.92,1.42 -5.02,0.81 -5.12,0.20 -5.12,0.20 L -5.12,0.20 Z"/></g><g transform="translate(214.2331441579248 168.6604621746112) rotate(125.5411322332845 9.19531330508903 -11.20355224609375)" stroke="none"><path fill="#1971c2" d="M -5.12,0.20 Q -5.12,0.20 -5.26,-1.98 -5.40,-4.16 -5.89,-6.49 -6.37,-8.83 -6.96,-11.04 -7.54,-13.25 -7.99,-15.57 -8.43,-17.89 -8.29,-20.17 -8.15,-22.46 -6.87,-24.58 -5.60,-26.71 -3.72,-28.00 -1.85,-29.29 0.50,-29.55 2.85,-29.81 6.82,-29.74 10.79,-29.67 13.26,-29.73 15.73,-29.78 17.99,-29.68 20.25,-29.59 23.29,-27.06 26.33,-24.54 26.76,-22.43 27.19,-20.32 27.29,-16.22 27.38,-12.13 27.33,-9.84 27.28,-7.54 27.26,-3.54 27.23,0.46 27.06,1.52 26.89,2.58 26.39,3.53 25.89,4.47 25.11,5.21 24.33,5.95 23.36,6.41 22.39,6.86 21.32,6.98 20.25,7.09 19.20,6.87 18.16,6.64 17.24,6.08 16.32,5.53 15.62,4.72 14.92,3.90 14.52,2.90 14.12,1.91 14.07,0.84 14.01,-0.23 14.29,-1.26 14.58,-2.30 15.18,-3.18 15.78,-4.07 16.63,-4.73 17.48,-5.38 18.50,-5.72 19.52,-6.06 20.59,-6.07 21.66,-6.07 22.68,-5.73 23.70,-5.39 24.55,-4.74 25.41,-4.09 26.01,-3.20 26.62,-2.32 26.91,-1.28 27.19,-0.25 27.14,0.81 27.08,1.89 26.69,2.88 26.29,3.88 25.60,4.70 24.90,5.52 23.98,6.07 23.07,6.63 22.02,6.86 20.97,7.09 19.90,6.98 18.84,6.86 17.86,6.41 16.89,5.97 16.11,5.23 15.33,4.49 14.82,3.54 14.32,2.60 14.14,1.54 13.97,0.48 13.97,0.48 13.97,0.48 13.92,-3.48 13.88,-7.45 13.70,-11.69 13.53,-15.94 13.28,-18.28 13.03,-20.61 14.38,-18.47 15.73,-16.32 13.26,-16.37 10.79,-16.43 8.66,-16.38 6.53,-16.34 3.54,-16.37 0.55,-16.41 2.44,-17.55 4.33,-18.69 2.33,-17.50 0.32,-16.30 2.22,-18.02 4.12,-19.74 4.19,-17.50 4.25,-15.26 4.45,-12.92 4.64,-10.59 4.87,-7.58 5.11,-4.57 5.13,-2.38 5.16,-0.20 5.11,0.41 5.06,1.03 4.86,1.62 4.66,2.21 4.33,2.73 4.00,3.26 3.55,3.68 3.10,4.11 2.57,4.42 2.03,4.73 1.43,4.90 0.84,5.08 0.22,5.10 -0.39,5.12 -1.00,5.00 -1.61,4.87 -2.17,4.61 -2.73,4.34 -3.21,3.95 -3.69,3.56 -4.06,3.06 -4.43,2.56 -4.68,1.99 -4.92,1.42 -5.02,0.81 -5.12,0.20 -5.12,0.20 L -5.12,0.20 Z"/></g><g transform="translate(189.75774700488975 196.8362061620262) rotate(148.28427309714473 9.19531330508903 -11.515354552575218)" stroke="none"><path fill="#1971c2" d="M -5.11,-0.40 Q -5.11,-0.40 -5.26,-2.52 -5.41,-4.64 -5.89,-6.90 -6.37,-9.16 -6.95,-11.29 -7.53,-13.43 -7.98,-15.72 -8.42,-18.02 -8.28,-20.30 -8.13,-22.57 -6.83,-24.67 -5.54,-26.77 -3.68,-28.03 -1.82,-29.29 0.51,-29.54 2.85,-29.80 6.82,-29.73 10.79,-29.66 13.26,-29.72 15.73,-29.78 17.96,-29.69 20.20,-29.61 23.25,-27.10 26.31,-24.60 26.87,-20.78 27.43,-16.95 27.41,-14.69 27.39,-12.43 27.35,-10.19 27.30,-7.95 27.28,-4.05 27.27,-0.15 27.09,0.90 26.92,1.97 26.42,2.92 25.91,3.87 25.13,4.62 24.35,5.36 23.37,5.82 22.40,6.27 21.32,6.39 20.25,6.51 19.20,6.28 18.14,6.05 17.22,5.49 16.29,4.94 15.60,4.12 14.90,3.30 14.49,2.30 14.09,1.29 14.03,0.22 13.97,-0.85 14.26,-1.89 14.55,-2.93 15.15,-3.82 15.75,-4.71 16.61,-5.37 17.47,-6.02 18.49,-6.37 19.51,-6.72 20.59,-6.72 21.67,-6.72 22.69,-6.38 23.71,-6.03 24.57,-5.38 25.43,-4.73 26.04,-3.84 26.65,-2.95 26.94,-1.91 27.23,-0.87 27.17,0.20 27.11,1.27 26.72,2.28 26.32,3.28 25.62,4.10 24.92,4.92 24.00,5.48 23.08,6.04 22.03,6.27 20.97,6.51 19.90,6.39 18.83,6.28 17.85,5.82 16.87,5.37 16.09,4.63 15.30,3.89 14.79,2.94 14.29,1.99 14.11,0.92 13.94,-0.13 13.94,-0.13 13.94,-0.13 13.89,-3.99 13.85,-7.86 13.69,-11.98 13.52,-16.10 13.29,-18.34 13.05,-20.58 14.39,-18.45 15.73,-16.33 13.26,-16.38 10.79,-16.44 8.66,-16.39 6.53,-16.34 3.53,-16.38 0.54,-16.42 2.41,-17.54 4.29,-18.65 2.29,-17.48 0.29,-16.32 2.20,-18.07 4.11,-19.83 4.18,-17.68 4.24,-15.53 4.44,-13.25 4.64,-10.96 4.87,-8.01 5.11,-5.07 5.13,-2.94 5.15,-0.81 5.10,-0.19 5.05,0.42 4.86,1.01 4.66,1.59 4.33,2.12 4.00,2.64 3.55,3.07 3.10,3.50 2.57,3.81 2.03,4.12 1.44,4.29 0.84,4.46 0.22,4.49 -0.39,4.51 -1.00,4.39 -1.60,4.27 -2.16,4.00 -2.72,3.73 -3.20,3.34 -3.68,2.95 -4.05,2.45 -4.43,1.96 -4.67,1.39 -4.91,0.82 -5.01,0.21 -5.11,-0.40 -5.11,-0.40 L -5.11,-0.40 Z"/></g><g transform="translate(148.7758934962469 206.25390818331152) rotate(170.61302874064165 9.19531330508903 -11.515354552575218)" stroke="none"><path fill="#1971c2" d="M -5.11,-0.40 Q -5.11,-0.40 -5.26,-2.52 -5.41,-4.64 -5.89,-6.90 -6.37,-9.16 -6.95,-11.29 -7.53,-13.43 -7.98,-15.72 -8.42,-18.02 -8.28,-20.30 -8.13,-22.57 -6.83,-24.67 -5.54,-26.77 -3.68,-28.03 -1.82,-29.29 0.51,-29.54 2.85,-29.80 6.82,-29.73 10.79,-29.66 13.26,-29.72 15.73,-29.78 17.96,-29.69 20.20,-29.61 23.25,-27.10 26.31,-24.60 26.87,-20.78 27.43,-16.95 27.41,-14.69 27.39,-12.43 27.35,-10.19 27.30,-7.95 27.28,-4.05 27.27,-0.15 27.09,0.90 26.92,1.97 26.42,2.92 25.91,3.87 25.13,4.62 24.35,5.36 23.37,5.82 22.40,6.27 21.32,6.39 20.25,6.51 19.20,6.28 18.14,6.05 17.22,5.49 16.29,4.94 15.60,4.12 14.90,3.30 14.49,2.30 14.09,1.29 14.03,0.22 13.97,-0.85 14.26,-1.89 14.55,-2.93 15.15,-3.82 15.75,-4.71 16.61,-5.37 17.47,-6.02 18.49,-6.37 19.51,-6.72 20.59,-6.72 21.67,-6.72 22.69,-6.38 23.71,-6.03 24.57,-5.38 25.43,-4.73 26.04,-3.84 26.65,-2.95 26.94,-1.91 27.23,-0.87 27.17,0.20 27.11,1.27 26.72,2.28 26.32,3.28 25.62,4.10 24.92,4.92 24.00,5.48 23.08,6.04 22.03,6.27 20.97,6.51 19.90,6.39 18.83,6.28 17.85,5.82 16.87,5.37 16.09,4.63 15.30,3.89 14.79,2.94 14.29,1.99 14.11,0.92 13.94,-0.13 13.94,-0.13 13.94,-0.13 13.89,-3.99 13.85,-7.86 13.69,-11.98 13.52,-16.10 13.29,-18.34 13.05,-20.58 14.39,-18.45 15.73,-16.33 13.26,-16.38 10.79,-16.44 8.66,-16.39 6.53,-16.34 3.53,-16.38 0.54,-16.42 2.41,-17.54 4.29,-18.65 2.29,-17.48 0.29,-16.32 2.20,-18.07 4.11,-19.83 4.18,-17.68 4.24,-15.53 4.44,-13.25 4.64,-10.96 4.87,-8.01 5.11,-5.07 5.13,-2.94 5.15,-0.81 5.10,-0.19 5.05,0.42 4.86,1.01 4.66,1.59 4.33,2.12 4.00,2.64 3.55,3.07 3.10,3.50 2.57,3.81 2.03,4.12 1.44,4.29 0.84,4.46 0.22,4.49 -0.39,4.51 -1.00,4.39 -1.60,4.27 -2.16,4.00 -2.72,3.73 -3.20,3.34 -3.68,2.95 -4.05,2.45 -4.43,1.96 -4.67,1.39 -4.91,0.82 -5.01,0.21 -5.11,-0.40 -5.11,-0.40 L -5.11,-0.40 Z"/></g><g transform="translate(108.03037109334565 206.13804404436564) rotate(197.49767394889307 9.19531330508903 -11.515354552575218)" stroke="none"><path fill="#1971c2" d="M -5.11,-0.40 Q -5.11,-0.40 -5.26,-2.52 -5.41,-4.64 -5.89,-6.90 -6.37,-9.16 -6.95,-11.29 -7.53,-13.43 -7.98,-15.72 -8.42,-18.02 -8.28,-20.30 -8.13,-22.57 -6.83,-24.67 -5.54,-26.77 -3.68,-28.03 -1.82,-29.29 0.51,-29.54 2.85,-29.80 6.82,-29.73 10.79,-29.66 13.26,-29.72 15.73,-29.78 17.96,-29.69 20.20,-29.61 23.25,-27.10 26.31,-24.60 26.87,-20.78 27.43,-16.95 27.41,-14.69 27.39,-12.43 27.35,-10.19 27.30,-7.95 27.28,-4.05 27.27,-0.15 27.09,0.90 26.92,1.97 26.42,2.92 25.91,3.87 25.13,4.62 24.35,5.36 23.37,5.82 22.40,6.27 21.32,6.39 20.25,6.51 19.20,6.28 18.14,6.05 17.22,5.49 16.29,4.94 15.60,4.12 14.90,3.30 14.49,2.30 14.09,1.29 14.03,0.22 13.97,-0.85 14.26,-1.89 14.55,-2.93 15.15,-3.82 15.75,-4.71 16.61,-5.37 17.47,-6.02 18.49,-6.37 19.51,-6.72 20.59,-6.72 21.67,-6.72 22.69,-6.38 23.71,-6.03 24.57,-5.38 25.43,-4.73 26.04,-3.84 26.65,-2.95 26.94,-1.91 27.23,-0.87 27.17,0.20 27.11,1.27 26.72,2.28 26.32,3.28 25.62,4.10 24.92,4.92 24.00,5.48 23.08,6.04 22.03,6.27 20.97,6.51 19.90,6.39 18.83,6.28 17.85,5.82 16.87,5.37 16.09,4.63 15.30,3.89 14.79,2.94 14.29,1.99 14.11,0.92 13.94,-0.13 13.94,-0.13 13.94,-0.13 13.89,-3.99 13.85,-7.86 13.69,-11.98 13.52,-16.10 13.29,-18.34 13.05,-20.58 14.39,-18.45 15.73,-16.33 13.26,-16.38 10.79,-16.44 8.66,-16.39 6.53,-16.34 3.53,-16.38 0.54,-16.42 2.41,-17.54 4.29,-18.65 2.29,-17.48 0.29,-16.32 2.20,-18.07 4.11,-19.83 4.18,-17.68 4.24,-15.53 4.44,-13.25 4.64,-10.96 4.87,-8.01 5.11,-5.07 5.13,-2.94 5.15,-0.81 5.10,-0.19 5.05,0.42 4.86,1.01 4.66,1.59 4.33,2.12 4.00,2.64 3.55,3.07 3.10,3.50 2.57,3.81 2.03,4.12 1.44,4.29 0.84,4.46 0.22,4.49 -0.39,4.51 -1.00,4.39 -1.60,4.27 -2.16,4.00 -2.72,3.73 -3.20,3.34 -3.68,2.95 -4.05,2.45 -4.43,1.96 -4.67,1.39 -4.91,0.82 -5.01,0.21 -5.11,-0.40 -5.11,-0.40 L -5.11,-0.40 Z"/></g><g transform="translate(70.08666818616229 181.45989435616502) rotate(238.1866795673775 10.427334787809514 -11.515354552575218)" stroke="none"><path fill="#1971c2" d="M -4.87,-0.37 Q -4.87,-0.37 -5.03,-2.50 -5.18,-4.62 -5.70,-6.84 -6.21,-9.06 -6.82,-11.16 -7.43,-13.27 -7.91,-15.35 -8.38,-17.44 -8.21,-20.10 -8.05,-22.76 -6.66,-24.84 -5.27,-26.92 -3.42,-28.11 -1.56,-29.31 0.91,-29.56 3.39,-29.82 7.80,-29.71 12.20,-29.60 14.52,-29.63 16.85,-29.67 18.99,-29.78 21.14,-29.89 23.37,-29.22 25.59,-28.56 27.08,-26.67 28.58,-24.78 29.07,-22.67 29.56,-20.56 29.69,-16.50 29.82,-12.44 29.78,-10.20 29.74,-7.96 29.72,-4.06 29.71,-0.15 29.54,0.90 29.37,1.96 28.86,2.91 28.36,3.86 27.58,4.60 26.80,5.34 25.83,5.80 24.86,6.25 23.79,6.37 22.72,6.49 21.67,6.26 20.62,6.03 19.70,5.48 18.77,4.92 18.08,4.11 17.38,3.29 16.98,2.29 16.58,1.29 16.52,0.22 16.46,-0.84 16.74,-1.88 17.03,-2.92 17.63,-3.81 18.23,-4.70 19.09,-5.35 19.94,-6.00 20.96,-6.35 21.98,-6.69 23.05,-6.70 24.13,-6.70 25.15,-6.36 26.17,-6.02 27.02,-5.37 27.88,-4.72 28.48,-3.83 29.09,-2.94 29.38,-1.91 29.67,-0.87 29.61,0.19 29.56,1.27 29.16,2.27 28.76,3.27 28.07,4.09 27.38,4.91 26.46,5.46 25.54,6.02 24.49,6.25 23.44,6.48 22.37,6.37 21.30,6.26 20.32,5.81 19.35,5.36 18.56,4.62 17.78,3.88 17.28,2.93 16.77,1.98 16.60,0.92 16.42,-0.13 16.42,-0.13 16.42,-0.13 16.38,-3.99 16.34,-7.85 16.17,-11.96 16.01,-16.06 15.76,-18.23 15.52,-20.40 18.33,-18.31 21.14,-16.22 18.99,-16.32 16.85,-16.43 14.52,-16.47 12.20,-16.51 9.83,-16.43 7.47,-16.36 4.46,-16.49 1.44,-16.62 2.78,-18.31 4.11,-20.00 4.20,-17.84 4.28,-15.67 4.53,-13.36 4.77,-11.05 5.05,-8.07 5.33,-5.09 5.36,-2.96 5.40,-0.83 5.35,-0.21 5.30,0.40 5.11,0.99 4.91,1.57 4.58,2.10 4.26,2.62 3.81,3.06 3.36,3.49 2.83,3.80 2.29,4.11 1.70,4.29 1.10,4.46 0.48,4.49 -0.12,4.52 -0.73,4.39 -1.34,4.27 -1.90,4.01 -2.46,3.75 -2.94,3.36 -3.43,2.97 -3.80,2.47 -4.17,1.98 -4.42,1.41 -4.67,0.84 -4.77,0.23 -4.87,-0.37 -4.87,-0.37 L -4.87,-0.37 Z"/></g><g transform="translate(47.56121602001059 141.8380707929623) rotate(257.6928712756142 10.427334787809514 -11.515354552575218)" stroke="none"><path fill="#1971c2" d="M -4.87,-0.37 Q -4.87,-0.37 -5.03,-2.50 -5.18,-4.62 -5.70,-6.84 -6.21,-9.06 -6.82,-11.16 -7.43,-13.27 -7.91,-15.35 -8.38,-17.44 -8.21,-20.10 -8.05,-22.76 -6.66,-24.84 -5.27,-26.92 -3.42,-28.11 -1.56,-29.31 0.91,-29.56 3.39,-29.82 7.80,-29.71 12.20,-29.60 14.52,-29.63 16.85,-29.67 18.99,-29.78 21.14,-29.89 23.37,-29.22 25.59,-28.56 27.08,-26.67 28.58,-24.78 29.07,-22.67 29.56,-20.56 29.69,-16.50 29.82,-12.44 29.78,-10.20 29.74,-7.96 29.72,-4.06 29.71,-0.15 29.54,0.90 29.37,1.96 28.86,2.91 28.36,3.86 27.58,4.60 26.80,5.34 25.83,5.80 24.86,6.25 23.79,6.37 22.72,6.49 21.67,6.26 20.62,6.03 19.70,5.48 18.77,4.92 18.08,4.11 17.38,3.29 16.98,2.29 16.58,1.29 16.52,0.22 16.46,-0.84 16.74,-1.88 17.03,-2.92 17.63,-3.81 18.23,-4.70 19.09,-5.35 19.94,-6.00 20.96,-6.35 21.98,-6.69 23.05,-6.70 24.13,-6.70 25.15,-6.36 26.17,-6.02 27.02,-5.37 27.88,-4.72 28.48,-3.83 29.09,-2.94 29.38,-1.91 29.67,-0.87 29.61,0.19 29.56,1.27 29.16,2.27 28.76,3.27 28.07,4.09 27.38,4.91 26.46,5.46 25.54,6.02 24.49,6.25 23.44,6.48 22.37,6.37 21.30,6.26 20.32,5.81 19.35,5.36 18.56,4.62 17.78,3.88 17.28,2.93 16.77,1.98 16.60,0.92 16.42,-0.13 16.42,-0.13 16.42,-0.13 16.38,-3.99 16.34,-7.85 16.17,-11.96 16.01,-16.06 15.76,-18.23 15.52,-20.40 18.33,-18.31 21.14,-16.22 18.99,-16.32 16.85,-16.43 14.52,-16.47 12.20,-16.51 9.83,-16.43 7.47,-16.36 4.46,-16.49 1.44,-16.62 2.78,-18.31 4.11,-20.00 4.20,-17.84 4.28,-15.67 4.53,-13.36 4.77,-11.05 5.05,-8.07 5.33,-5.09 5.36,-2.96 5.40,-0.83 5.35,-0.21 5.30,0.40 5.11,0.99 4.91,1.57 4.58,2.10 4.26,2.62 3.81,3.06 3.36,3.49 2.83,3.80 2.29,4.11 1.70,4.29 1.10,4.46 0.48,4.49 -0.12,4.52 -0.73,4.39 -1.34,4.27 -1.90,4.01 -2.46,3.75 -2.94,3.36 -3.43,2.97 -3.80,2.47 -4.17,1.98 -4.42,1.41 -4.67,0.84 -4.77,0.23 -4.87,-0.37 -4.87,-0.37 L -4.87,-0.37 Z"/></g><g transform="translate(44.20275148836487 99.59335839307118) rotate(283.6843117154099 10.427334787809514 -11.515354552575218)" stroke="none"><path fill="#1971c2" d="M -4.87,-0.37 Q -4.87,-0.37 -5.03,-2.50 -5.18,-4.62 -5.70,-6.84 -6.21,-9.06 -6.82,-11.16 -7.43,-13.27 -7.91,-15.35 -8.38,-17.44 -8.21,-20.10 -8.05,-22.76 -6.66,-24.84 -5.27,-26.92 -3.42,-28.11 -1.56,-29.31 0.91,-29.56 3.39,-29.82 7.80,-29.71 12.20,-29.60 14.52,-29.63 16.85,-29.67 18.99,-29.78 21.14,-29.89 23.37,-29.22 25.59,-28.56 27.08,-26.67 28.58,-24.78 29.07,-22.67 29.56,-20.56 29.69,-16.50 29.82,-12.44 29.78,-10.20 29.74,-7.96 29.72,-4.06 29.71,-0.15 29.54,0.90 29.37,1.96 28.86,2.91 28.36,3.86 27.58,4.60 26.80,5.34 25.83,5.80 24.86,6.25 23.79,6.37 22.72,6.49 21.67,6.26 20.62,6.03 19.70,5.48 18.77,4.92 18.08,4.11 17.38,3.29 16.98,2.29 16.58,1.29 16.52,0.22 16.46,-0.84 16.74,-1.88 17.03,-2.92 17.63,-3.81 18.23,-4.70 19.09,-5.35 19.94,-6.00 20.96,-6.35 21.98,-6.69 23.05,-6.70 24.13,-6.70 25.15,-6.36 26.17,-6.02 27.02,-5.37 27.88,-4.72 28.48,-3.83 29.09,-2.94 29.38,-1.91 29.67,-0.87 29.61,0.19 29.56,1.27 29.16,2.27 28.76,3.27 28.07,4.09 27.38,4.91 26.46,5.46 25.54,6.02 24.49,6.25 23.44,6.48 22.37,6.37 21.30,6.26 20.32,5.81 19.35,5.36 18.56,4.62 17.78,3.88 17.28,2.93 16.77,1.98 16.60,0.92 16.42,-0.13 16.42,-0.13 16.42,-0.13 16.38,-3.99 16.34,-7.85 16.17,-11.96 16.01,-16.06 15.76,-18.23 15.52,-20.40 18.33,-18.31 21.14,-16.22 18.99,-16.32 16.85,-16.43 14.52,-16.47 12.20,-16.51 9.83,-16.43 7.47,-16.36 4.46,-16.49 1.44,-16.62 2.78,-18.31 4.11,-20.00 4.20,-17.84 4.28,-15.67 4.53,-13.36 4.77,-11.05 5.05,-8.07 5.33,-5.09 5.36,-2.96 5.40,-0.83 5.35,-0.21 5.30,0.40 5.11,0.99 4.91,1.57 4.58,2.10 4.26,2.62 3.81,3.06 3.36,3.49 2.83,3.80 2.29,4.11 1.70,4.29 1.10,4.46 0.48,4.49 -0.12,4.52 -0.73,4.39 -1.34,4.27 -1.90,4.01 -2.46,3.75 -2.94,3.36 -3.43,2.97 -3.80,2.47 -4.17,1.98 -4.42,1.41 -4.67,0.84 -4.77,0.23 -4.87,-0.37 -4.87,-0.37 L -4.87,-0.37 Z"/></g><g transform="translate(65.39465234779294 62.00169836206919) rotate(312.2326363255584 10.427334787809514 -11.515354552575218)" stroke="none"><path fill="#1971c2" d="M -4.87,-0.37 Q -4.87,-0.37 -5.03,-2.50 -5.18,-4.62 -5.70,-6.84 -6.21,-9.06 -6.82,-11.16 -7.43,-13.27 -7.91,-15.35 -8.38,-17.44 -8.21,-20.10 -8.05,-22.76 -6.66,-24.84 -5.27,-26.92 -3.42,-28.11 -1.56,-29.31 0.91,-29.56 3.39,-29.82 7.80,-29.71 12.20,-29.60 14.52,-29.63 16.85,-29.67 18.99,-29.78 21.14,-29.89 23.37,-29.22 25.59,-28.56 27.08,-26.67 28.58,-24.78 29.07,-22.67 29.56,-20.56 29.69,-16.50 29.82,-12.44 29.78,-10.20 29.74,-7.96 29.72,-4.06 29.71,-0.15 29.54,0.90 29.37,1.96 28.86,2.91 28.36,3.86 27.58,4.60 26.80,5.34 25.83,5.80 24.86,6.25 23.79,6.37 22.72,6.49 21.67,6.26 20.62,6.03 19.70,5.48 18.77,4.92 18.08,4.11 17.38,3.29 16.98,2.29 16.58,1.29 16.52,0.22 16.46,-0.84 16.74,-1.88 17.03,-2.92 17.63,-3.81 18.23,-4.70 19.09,-5.35 19.94,-6.00 20.96,-6.35 21.98,-6.69 23.05,-6.70 24.13,-6.70 25.15,-6.36 26.17,-6.02 27.02,-5.37 27.88,-4.72 28.48,-3.83 29.09,-2.94 29.38,-1.91 29.67,-0.87 29.61,0.19 29.56,1.27 29.16,2.27 28.76,3.27 28.07,4.09 27.38,4.91 26.46,5.46 25.54,6.02 24.49,6.25 23.44,6.48 22.37,6.37 21.30,6.26 20.32,5.81 19.35,5.36 18.56,4.62 17.78,3.88 17.28,2.93 16.77,1.98 16.60,0.92 16.42,-0.13 16.42,-0.13 16.42,-0.13 16.38,-3.99 16.34,-7.85 16.17,-11.96 16.01,-16.06 15.76,-18.23 15.52,-20.40 18.33,-18.31 21.14,-16.22 18.99,-16.32 16.85,-16.43 14.52,-16.47 12.20,-16.51 9.83,-16.43 7.47,-16.36 4.46,-16.49 1.44,-16.62 2.78,-18.31 4.11,-20.00 4.20,-17.84 4.28,-15.67 4.53,-13.36 4.77,-11.05 5.05,-8.07 5.33,-5.09 5.36,-2.96 5.40,-0.83 5.35,-0.21 5.30,0.40 5.11,0.99 4.91,1.57 4.58,2.10 4.26,2.62 3.81,3.06 3.36,3.49 2.83,3.80 2.29,4.11 1.70,4.29 1.10,4.46 0.48,4.49 -0.12,4.52 -0.73,4.39 -1.34,4.27 -1.90,4.01 -2.46,3.75 -2.94,3.36 -3.43,2.97 -3.80,2.47 -4.17,1.98 -4.42,1.41 -4.67,0.84 -4.77,0.23 -4.87,-0.37 -4.87,-0.37 L -4.87,-0.37 Z"/></g><g transform="translate(95.67360422732423 36.67708921366011) rotate(338.87324402052946 10.427334787809514 -11.515354552575218)" stroke="none"><path fill="#1971c2" d="M -4.87,-0.37 Q -4.87,-0.37 -5.03,-2.50 -5.18,-4.62 -5.70,-6.84 -6.21,-9.06 -6.82,-11.16 -7.43,-13.27 -7.91,-15.35 -8.38,-17.44 -8.21,-20.10 -8.05,-22.76 -6.66,-24.84 -5.27,-26.92 -3.42,-28.11 -1.56,-29.31 0.91,-29.56 3.39,-29.82 7.80,-29.71 12.20,-29.60 14.52,-29.63 16.85,-29.67 18.99,-29.78 21.14,-29.89 23.37,-29.22 25.59,-28.56 27.08,-26.67 28.58,-24.78 29.07,-22.67 29.56,-20.56 29.69,-16.50 29.82,-12.44 29.78,-10.20 29.74,-7.96 29.72,-4.06 29.71,-0.15 29.54,0.90 29.37,1.96 28.86,2.91 28.36,3.86 27.58,4.60 26.80,5.34 25.83,5.80 24.86,6.25 23.79,6.37 22.72,6.49 21.67,6.26 20.62,6.03 19.70,5.48 18.77,4.92 18.08,4.11 17.38,3.29 16.98,2.29 16.58,1.29 16.52,0.22 16.46,-0.84 16.74,-1.88 17.03,-2.92 17.63,-3.81 18.23,-4.70 19.09,-5.35 19.94,-6.00 20.96,-6.35 21.98,-6.69 23.05,-6.70 24.13,-6.70 25.15,-6.36 26.17,-6.02 27.02,-5.37 27.88,-4.72 28.48,-3.83 29.09,-2.94 29.38,-1.91 29.67,-0.87 29.61,0.19 29.56,1.27 29.16,2.27 28.76,3.27 28.07,4.09 27.38,4.91 26.46,5.46 25.54,6.02 24.49,6.25 23.44,6.48 22.37,6.37 21.30,6.26 20.32,5.81 19.35,5.36 18.56,4.62 17.78,3.88 17.28,2.93 16.77,1.98 16.60,0.92 16.42,-0.13 16.42,-0.13 16.42,-0.13 16.38,-3.99 16.34,-7.85 16.17,-11.96 16.01,-16.06 15.76,-18.23 15.52,-20.40 18.33,-18.31 21.14,-16.22 18.99,-16.32 16.85,-16.43 14.52,-16.47 12.20,-16.51 9.83,-16.43 7.47,-16.36 4.46,-16.49 1.44,-16.62 2.78,-18.31 4.11,-20.00 4.20,-17.84 4.28,-15.67 4.53,-13.36 4.77,-11.05 5.05,-8.07 5.33,-5.09 5.36,-2.96 5.40,-0.83 5.35,-0.21 5.30,0.40 5.11,0.99 4.91,1.57 4.58,2.10 4.26,2.62 3.81,3.06 3.36,3.49 2.83,3.80 2.29,4.11 1.70,4.29 1.10,4.46 0.48,4.49 -0.12,4.52 -0.73,4.39 -1.34,4.27 -1.90,4.01 -2.46,3.75 -2.94,3.36 -3.43,2.97 -3.80,2.47 -4.17,1.98 -4.42,1.41 -4.67,0.84 -4.77,0.23 -4.87,-0.37 -4.87,-0.37 L -4.87,-0.37 Z"/></g><g transform="translate(129.1388211955645 33.27656709313419) rotate(358.8824521059599 10.427334787809514 -10.893712539528906)" stroke="none"><path fill="#1971c2" d="M -4.88,0.81 Q -4.88,0.81 -5.03,-1.41 -5.17,-3.65 -5.69,-6.03 -6.21,-8.41 -6.84,-10.67 -7.47,-12.92 -7.93,-15.04 -8.40,-17.16 -8.25,-19.85 -8.10,-22.54 -6.75,-24.67 -5.39,-26.80 -3.50,-28.05 -1.61,-29.31 0.89,-29.57 3.39,-29.83 7.80,-29.72 12.20,-29.61 14.52,-29.65 16.85,-29.68 18.99,-29.79 21.14,-29.90 23.43,-29.18 25.72,-28.47 27.17,-26.56 28.62,-24.66 29.10,-22.48 29.58,-20.30 29.69,-16.07 29.80,-11.85 29.74,-9.50 29.69,-7.14 29.65,-4.99 29.62,-2.84 29.63,-0.88 29.64,1.07 29.47,2.12 29.30,3.17 28.81,4.11 28.31,5.06 27.54,5.79 26.77,6.52 25.80,6.97 24.84,7.42 23.78,7.54 22.72,7.65 21.68,7.43 20.64,7.20 19.73,6.65 18.82,6.11 18.12,5.30 17.43,4.49 17.04,3.50 16.64,2.51 16.58,1.45 16.52,0.39 16.81,-0.63 17.09,-1.66 17.68,-2.54 18.28,-3.42 19.13,-4.07 19.97,-4.71 20.98,-5.05 21.99,-5.40 23.05,-5.40 24.12,-5.40 25.13,-5.06 26.14,-4.72 26.98,-4.08 27.83,-3.44 28.43,-2.56 29.03,-1.68 29.32,-0.65 29.60,0.36 29.55,1.42 29.49,2.49 29.10,3.48 28.71,4.47 28.02,5.28 27.33,6.09 26.42,6.64 25.51,7.19 24.47,7.42 23.43,7.65 22.37,7.54 21.32,7.43 20.35,6.98 19.38,6.54 18.61,5.81 17.83,5.07 17.33,4.14 16.83,3.20 16.66,2.15 16.49,1.10 16.49,1.10 16.49,1.10 16.44,-2.97 16.39,-7.04 16.20,-11.39 16.01,-15.73 15.74,-18.10 15.47,-20.47 18.31,-18.34 21.14,-16.21 18.99,-16.31 16.85,-16.42 14.52,-16.45 12.20,-16.49 8.31,-17.51 4.42,-18.53 2.42,-17.40 0.41,-16.27 2.27,-17.96 4.13,-19.65 4.22,-17.39 4.31,-15.12 4.54,-12.71 4.77,-10.30 5.05,-7.20 5.32,-4.10 5.36,-1.85 5.41,0.38 5.36,1.00 5.31,1.62 5.11,2.21 4.92,2.80 4.59,3.32 4.26,3.85 3.81,4.28 3.36,4.71 2.82,5.02 2.29,5.33 1.69,5.51 1.09,5.68 0.47,5.71 -0.14,5.73 -0.75,5.61 -1.35,5.49 -1.92,5.22 -2.48,4.96 -2.96,4.57 -3.44,4.17 -3.82,3.68 -4.19,3.18 -4.43,2.61 -4.68,2.04 -4.78,1.43 -4.88,0.81 -4.88,0.81 L -4.88,0.81 Z"/></g><g stroke-linecap="round" transform="translate(83.9581016536855 54.83803764343838) rotate(18.236874062316982 60.828186035156236 56.997344970703125)"><path d="M22.32 14.1 C22.32 14.1, 22.32 14.1, 22.32 14.1 M22.32 14.1 C22.32 14.1, 22.32 14.1, 22.32 14.1 M3.42 48.03 C17.26 33.71, 27.14 18.4, 39.51 6.52 M3.42 48.03 C12.78 38.62, 22.76 27.19, 39.51 6.52 M0.28 63.84 C13.17 49.36, 26.35 36.73, 53.42 2.71 M0.28 63.84 C18.93 43.03, 37 20.98, 53.42 2.71 M3.69 72.11 C19.58 51.32, 36.43 33.57, 64.05 2.67 M3.69 72.11 C17.25 56.9, 32.5 40.29, 64.05 2.67 M7.1 80.37 C27.49 58.48, 47.87 34.87, 74.68 2.64 M7.1 80.37 C20.26 64.69, 33.33 47.77, 74.68 2.64 M10.52 88.64 C28.68 69.15, 44.79 52.4, 82.68 5.62 M10.52 88.64 C38.18 57.87, 65.03 26.98, 82.68 5.62 M16.55 93.89 C39.53 69.25, 59.18 41.94, 90.03 9.36 M16.55 93.89 C41.7 66.73, 65.58 38.54, 90.03 9.36 M22.59 99.14 C47.2 69.3, 74.01 38.57, 97.38 13.1 M22.59 99.14 C44.92 73.46, 68.38 46.74, 97.38 13.1 M28.63 104.39 C44.96 83.43, 62.63 67.87, 103.42 18.35 M28.63 104.39 C56.99 72.49, 85.48 40.6, 103.42 18.35 M35.98 108.13 C58.87 82.36, 85.81 54.28, 108.8 24.35 M35.98 108.13 C53.16 89.3, 68.73 71.36, 108.8 24.35 M44.64 110.36 C59.82 92.26, 74.53 76.9, 113.53 31.11 M44.64 110.36 C70.93 82.36, 94.6 54.1, 113.53 31.11 M53.3 112.59 C66.48 93.94, 84.51 78.07, 118.25 37.87 M53.3 112.59 C73.46 89.17, 95.2 64.43, 118.25 37.87 M63.28 113.31 C78.48 95.9, 92.35 81.13, 119.04 49.16 M63.28 113.31 C73.55 99.26, 86.37 85.77, 119.04 49.16 M75.87 111.01 C85.41 96.29, 97.24 83.27, 119.83 60.44 M75.87 111.01 C90.45 94.77, 106.85 77.16, 119.83 60.44 M88.47 108.71 C95.92 100.23, 104.03 93.38, 116.03 77.01 M88.47 108.71 C94.43 102.41, 99.46 95.71, 116.03 77.01 M31.32 107.25 C31.32 107.25, 31.32 107.25, 31.32 107.25 M31.32 107.25 C31.32 107.25, 31.32 107.25, 31.32 107.25 M47.89 111.05 C29.54 96.41, 13.33 83.03, 4.12 73 M47.89 111.05 C32.71 98.58, 19.63 86.11, 4.12 73 M62.2 112.88 C48.23 97.79, 31.6 85.08, 0.31 59.09 M62.2 112.88 C43.86 97.07, 24.35 80.78, 0.31 59.09 M72.73 111.44 C57.61 96.42, 42.8 86.86, 2.54 50.42 M72.73 111.44 C52.66 94.46, 32.49 77.91, 2.54 50.42 M82.51 109.34 C59.38 90.44, 41.24 73.56, 4.02 41.11 M82.51 109.34 C56.08 86.64, 29.36 62.52, 4.02 41.11 M90.77 105.92 C71.76 89.58, 55.16 77.3, 7 33.1 M90.77 105.92 C62.86 80.86, 36.13 57.3, 7 33.1 M96.78 100.54 C67.84 77.23, 41.13 50.73, 12.25 27.06 M96.78 100.54 C78.09 85.33, 58.6 67.92, 12.25 27.06 M103.54 95.82 C71.2 69.39, 41.67 41.07, 16.74 20.37 M103.54 95.82 C77.49 72.27, 51.57 49.15, 16.74 20.37 M109.54 90.43 C84.3 70.44, 59.27 47.9, 21.99 14.33 M109.54 90.43 C85.26 70.14, 61.28 49.06, 21.99 14.33 M113.28 83.08 C89.25 62.31, 63.64 42.73, 29.5 10.26 M113.28 83.08 C90.75 62.75, 66.48 42, 29.5 10.26 M116.26 75.08 C98.44 62.7, 83.4 46.16, 37.77 6.85 M116.26 75.08 C85.77 48.52, 53.73 20.69, 37.77 6.85 M119.25 67.07 C97.31 45.25, 71.85 26.72, 46.04 3.44 M119.25 67.07 C101.09 50.8, 82.15 34.47, 46.04 3.44 M119.97 57.1 C101.61 41.42, 86.12 30.76, 56.57 1.99 M119.97 57.1 C96 35.93, 72.56 16.11, 56.57 1.99 M119.18 45.81 C105.79 32.48, 92.04 22.62, 68.61 1.86 M119.18 45.81 C104.02 31.43, 88 17.76, 68.61 1.86 M113.1 29.93 C103.83 22.51, 94.11 13.96, 88.95 8.94 M113.1 29.93 C108.32 24.96, 102.45 21.05, 88.95 8.94" stroke="#e9ecef" stroke-width="1" fill="none"/><path d="M76.97 2.78 C85.81 4.26, 95.16 10.13, 101.98 15.99 C108.81 21.85, 114.85 29.81, 117.93 37.93 C121 46.05, 121.84 55.97, 120.45 64.71 C119.06 73.45, 114.99 83.05, 109.59 90.37 C104.19 97.69, 96.34 104.77, 88.05 108.64 C79.76 112.52, 69.31 113.9, 59.83 113.64 C50.35 113.39, 39.43 111.37, 31.17 107.11 C22.9 102.85, 15.46 95.45, 10.22 88.08 C4.99 80.7, 0.61 71.63, -0.22 62.84 C-1.06 54.06, 1.48 43.46, 5.23 35.35 C8.98 27.23, 15.1 19.64, 22.28 14.14 C29.46 8.63, 38.48 4.04, 48.29 2.33 C58.11 0.61, 75.16 3.42, 81.17 3.86 C87.19 4.31, 84.72 4.17, 84.38 5 M56.7 0.21 C65.58 -1.06, 75.5 1.49, 84.12 4.82 C92.75 8.16, 102.28 13.45, 108.44 20.23 C114.6 27, 119.13 36.59, 121.08 45.48 C123.02 54.36, 122.98 65.15, 120.12 73.52 C117.26 81.89, 110.5 89.47, 103.92 95.72 C97.34 101.97, 89.38 108.23, 80.61 111.02 C71.84 113.8, 60.69 114.01, 51.31 112.42 C41.94 110.83, 31.78 106.44, 24.36 101.47 C16.94 96.51, 10.78 90.31, 6.81 82.63 C2.84 74.95, 0.12 64.43, 0.53 55.41 C0.95 46.39, 4.4 36.39, 9.3 28.51 C14.2 20.64, 22.35 12.92, 29.94 8.16 C37.53 3.41, 50.36 1.28, 54.85 -0.03 C59.34 -1.34, 56.44 -0.77, 56.89 0.31" stroke="#1e1e1e" stroke-width="2" fill="none"/></g><g stroke-linecap="round" transform="translate(264.1038579563235 113.09226779153641) rotate(15.08234454131543 41.344510056089675 41.34451005608969)"><path d="M32.99 1.71 C39.55 -0.21, 47.84 0.35, 54.58 2.93 C61.32 5.52, 68.73 11.22, 73.44 17.24 C78.15 23.26, 82.08 31.93, 82.83 39.05 C83.58 46.17, 81.6 53.58, 77.94 59.94 C74.29 66.29, 67.33 73.26, 60.92 77.16 C54.51 81.06, 46.72 83.8, 39.48 83.34 C32.24 82.88, 23.77 79.04, 17.48 74.41 C11.19 69.78, 4.65 62.51, 1.74 55.55 C-1.17 48.59, -1.82 39.94, 0.01 32.66 C1.84 25.38, 6.68 17.16, 12.71 11.89 C18.75 6.61, 31.99 2.96, 36.19 0.99 C40.4 -0.98, 37.89 -0.59, 37.94 0.05 M48.89 1.84 C56.27 2.82, 65.59 7.63, 71.02 12.52 C76.46 17.42, 79.79 24.26, 81.5 31.22 C83.2 38.18, 83.83 47.36, 81.27 54.3 C78.71 61.25, 72.43 68.37, 66.14 72.9 C59.85 77.43, 50.78 80.55, 43.56 81.46 C36.34 82.38, 29.1 81.79, 22.81 78.41 C16.52 75.03, 9.56 67.66, 5.81 61.18 C2.06 54.71, -0.09 47.05, 0.33 39.54 C0.74 32.02, 4.05 22.05, 8.32 16.1 C12.59 10.15, 19.11 6.52, 25.94 3.85 C32.77 1.18, 45.27 0.62, 49.32 0.1 C53.38 -0.43, 50.41 -0.21, 50.26 0.71" stroke="none" stroke-width="0" fill="#1971c2"/><path d="M26.4 2.81 C32.66 -0.38, 41.19 -1.11, 48.32 0.46 C55.45 2.02, 63.52 7.06, 69.17 12.2 C74.82 17.34, 80.21 24.22, 82.22 31.3 C84.23 38.39, 83.65 47.7, 81.26 54.71 C78.86 61.72, 73.99 68.83, 67.87 73.38 C61.75 77.93, 51.95 81.36, 44.54 81.99 C37.13 82.63, 29.96 80.55, 23.41 77.2 C16.87 73.84, 9.27 68.23, 5.28 61.85 C1.29 55.47, -0.87 46.36, -0.55 38.92 C-0.24 31.47, 2.32 23.31, 7.17 17.19 C12.02 11.06, 24.14 4.68, 28.56 2.17 C32.97 -0.34, 33.48 1.4, 33.66 2.12 M34.59 1.85 C41.72 0.09, 51.48 0.19, 58.4 2.82 C65.31 5.44, 72.17 11.03, 76.08 17.6 C79.98 24.16, 81.58 34.39, 81.83 42.22 C82.08 50.06, 81.6 58.48, 77.57 64.62 C73.54 70.76, 64.62 76.31, 57.64 79.07 C50.67 81.84, 42.82 82.25, 35.72 81.22 C28.62 80.18, 20.73 77.21, 15.05 72.84 C9.37 68.47, 3.96 62.08, 1.65 54.98 C-0.67 47.87, -1.08 37.47, 1.17 30.21 C3.42 22.95, 9.69 16.18, 15.15 11.43 C20.61 6.68, 30.37 3.47, 33.93 1.72 C37.5 -0.03, 36.14 0.41, 36.53 0.94" stroke="#1e1e1e" stroke-width="4" fill="none"/></g><g transform="translate(313.37543825047294 113.31873176629824) rotate(15.08234454131543 4.9618159785852 -6.119989243577834)" stroke="none"><path fill="#1e1e1e" d="M -4.90,0.49 Q -4.90,0.49 -5.18,-1.31 -5.45,-3.12 -6.03,-5.52 -6.60,-7.91 -6.66,-10.45 -6.71,-12.99 -5.57,-14.80 -4.42,-16.60 -2.42,-17.61 -0.42,-18.62 2.70,-18.77 5.82,-18.92 8.01,-19.04 10.19,-19.17 12.34,-18.43 14.49,-17.69 15.74,-15.94 16.98,-14.19 17.38,-11.76 17.79,-9.33 17.85,-6.73 17.91,-4.14 17.92,-1.94 17.93,0.24 17.75,1.33 17.58,2.41 17.06,3.39 16.55,4.36 15.75,5.12 14.96,5.88 13.96,6.34 12.96,6.80 11.87,6.92 10.77,7.05 9.70,6.81 8.62,6.58 7.68,6.01 6.73,5.45 6.02,4.61 5.31,3.77 4.90,2.75 4.49,1.73 4.43,0.63 4.37,-0.46 4.66,-1.52 4.95,-2.58 5.57,-3.49 6.18,-4.40 7.06,-5.07 7.93,-5.74 8.98,-6.09 10.02,-6.45 11.12,-6.45 12.22,-6.45 13.26,-6.10 14.30,-5.75 15.18,-5.09 16.06,-4.42 16.68,-3.51 17.30,-2.60 17.59,-1.54 17.89,-0.48 17.83,0.61 17.77,1.71 17.37,2.73 16.96,3.75 16.25,4.59 15.54,5.43 14.60,6.00 13.66,6.57 12.58,6.81 11.51,7.04 10.41,6.93 9.32,6.81 8.32,6.35 7.32,5.89 6.52,5.13 5.72,4.38 5.20,3.41 4.69,2.44 4.51,1.35 4.33,0.26 4.33,0.27 4.33,0.27 4.33,-1.89 4.32,-4.05 4.30,-7.26 4.28,-10.47 7.24,-8.24 10.19,-6.01 8.01,-6.13 5.82,-6.26 3.20,-6.39 0.58,-6.52 2.57,-7.60 4.55,-8.68 4.63,-6.42 4.72,-4.15 4.81,-2.32 4.90,-0.49 4.89,0.09 4.87,0.69 4.72,1.26 4.57,1.83 4.28,2.35 3.99,2.87 3.59,3.31 3.19,3.75 2.69,4.07 2.20,4.40 1.64,4.60 1.08,4.80 0.49,4.86 -0.09,4.92 -0.68,4.84 -1.27,4.75 -1.82,4.53 -2.37,4.31 -2.85,3.96 -3.34,3.62 -3.72,3.17 -4.11,2.71 -4.37,2.18 -4.64,1.65 -4.77,1.07 -4.90,0.49 -4.90,0.49 L -4.90,0.49 Z"/></g><g transform="translate(332.07736391425067 122.41031603286433) rotate(39.42572341475588 4.9618159785852 -6.119989243577834)" stroke="none"><path fill="#1e1e1e" d="M -4.90,0.49 Q -4.90,0.49 -5.18,-1.31 -5.45,-3.12 -6.03,-5.52 -6.60,-7.91 -6.66,-10.45 -6.71,-12.99 -5.57,-14.80 -4.42,-16.60 -2.42,-17.61 -0.42,-18.62 2.70,-18.77 5.82,-18.92 8.01,-19.04 10.19,-19.17 12.34,-18.43 14.49,-17.69 15.74,-15.94 16.98,-14.19 17.38,-11.76 17.79,-9.33 17.85,-6.73 17.91,-4.14 17.92,-1.94 17.93,0.24 17.75,1.33 17.58,2.41 17.06,3.39 16.55,4.36 15.75,5.12 14.96,5.88 13.96,6.34 12.96,6.80 11.87,6.92 10.77,7.05 9.70,6.81 8.62,6.58 7.68,6.01 6.73,5.45 6.02,4.61 5.31,3.77 4.90,2.75 4.49,1.73 4.43,0.63 4.37,-0.46 4.66,-1.52 4.95,-2.58 5.57,-3.49 6.18,-4.40 7.06,-5.07 7.93,-5.74 8.98,-6.09 10.02,-6.45 11.12,-6.45 12.22,-6.45 13.26,-6.10 14.30,-5.75 15.18,-5.09 16.06,-4.42 16.68,-3.51 17.30,-2.60 17.59,-1.54 17.89,-0.48 17.83,0.61 17.77,1.71 17.37,2.73 16.96,3.75 16.25,4.59 15.54,5.43 14.60,6.00 13.66,6.57 12.58,6.81 11.51,7.04 10.41,6.93 9.32,6.81 8.32,6.35 7.32,5.89 6.52,5.13 5.72,4.38 5.20,3.41 4.69,2.44 4.51,1.35 4.33,0.26 4.33,0.27 4.33,0.27 4.33,-1.89 4.32,-4.05 4.30,-7.26 4.28,-10.47 7.24,-8.24 10.19,-6.01 8.01,-6.13 5.82,-6.26 3.20,-6.39 0.58,-6.52 2.57,-7.60 4.55,-8.68 4.63,-6.42 4.72,-4.15 4.81,-2.32 4.90,-0.49 4.89,0.09 4.87,0.69 4.72,1.26 4.57,1.83 4.28,2.35 3.99,2.87 3.59,3.31 3.19,3.75 2.69,4.07 2.20,4.40 1.64,4.60 1.08,4.80 0.49,4.86 -0.09,4.92 -0.68,4.84 -1.27,4.75 -1.82,4.53 -2.37,4.31 -2.85,3.96 -3.34,3.62 -3.72,3.17 -4.11,2.71 -4.37,2.18 -4.64,1.65 -4.77,1.07 -4.90,0.49 -4.90,0.49 L -4.90,0.49 Z"/></g><g transform="translate(346.228676665069 140.92065888150478) rotate(63.1471275295814 4.9618159785852 -6.119989243577834)" stroke="none"><path fill="#1e1e1e" d="M -4.90,0.49 Q -4.90,0.49 -5.18,-1.31 -5.45,-3.12 -6.03,-5.52 -6.60,-7.91 -6.66,-10.45 -6.71,-12.99 -5.57,-14.80 -4.42,-16.60 -2.42,-17.61 -0.42,-18.62 2.70,-18.77 5.82,-18.92 8.01,-19.04 10.19,-19.17 12.34,-18.43 14.49,-17.69 15.74,-15.94 16.98,-14.19 17.38,-11.76 17.79,-9.33 17.85,-6.73 17.91,-4.14 17.92,-1.94 17.93,0.24 17.75,1.33 17.58,2.41 17.06,3.39 16.55,4.36 15.75,5.12 14.96,5.88 13.96,6.34 12.96,6.80 11.87,6.92 10.77,7.05 9.70,6.81 8.62,6.58 7.68,6.01 6.73,5.45 6.02,4.61 5.31,3.77 4.90,2.75 4.49,1.73 4.43,0.63 4.37,-0.46 4.66,-1.52 4.95,-2.58 5.57,-3.49 6.18,-4.40 7.06,-5.07 7.93,-5.74 8.98,-6.09 10.02,-6.45 11.12,-6.45 12.22,-6.45 13.26,-6.10 14.30,-5.75 15.18,-5.09 16.06,-4.42 16.68,-3.51 17.30,-2.60 17.59,-1.54 17.89,-0.48 17.83,0.61 17.77,1.71 17.37,2.73 16.96,3.75 16.25,4.59 15.54,5.43 14.60,6.00 13.66,6.57 12.58,6.81 11.51,7.04 10.41,6.93 9.32,6.81 8.32,6.35 7.32,5.89 6.52,5.13 5.72,4.38 5.20,3.41 4.69,2.44 4.51,1.35 4.33,0.26 4.33,0.27 4.33,0.27 4.33,-1.89 4.32,-4.05 4.30,-7.26 4.28,-10.47 7.24,-8.24 10.19,-6.01 8.01,-6.13 5.82,-6.26 3.20,-6.39 0.58,-6.52 2.57,-7.60 4.55,-8.68 4.63,-6.42 4.72,-4.15 4.81,-2.32 4.90,-0.49 4.89,0.09 4.87,0.69 4.72,1.26 4.57,1.83 4.28,2.35 3.99,2.87 3.59,3.31 3.19,3.75 2.69,4.07 2.20,4.40 1.64,4.60 1.08,4.80 0.49,4.86 -0.09,4.92 -0.68,4.84 -1.27,4.75 -1.82,4.53 -2.37,4.31 -2.85,3.96 -3.34,3.62 -3.72,3.17 -4.11,2.71 -4.37,2.18 -4.64,1.65 -4.77,1.07 -4.90,0.49 -4.90,0.49 L -4.90,0.49 Z"/></g><g transform="translate(349.04652007021815 162.94520139985934) rotate(93.52175261315227 5.0229799694194455 -6.119989243577834)" stroke="none"><path fill="#1e1e1e" d="M -4.88,0.50 Q -4.88,0.50 -5.17,-1.31 -5.45,-3.12 -6.02,-5.51 -6.60,-7.91 -6.65,-10.46 -6.71,-13.01 -5.55,-14.81 -4.40,-16.62 -2.40,-17.62 -0.40,-18.62 2.74,-18.77 5.89,-18.92 8.03,-19.04 10.16,-19.16 12.38,-18.44 14.59,-17.71 15.84,-15.96 17.09,-14.20 17.50,-11.77 17.91,-9.33 17.97,-6.73 18.03,-4.14 18.04,-1.94 18.05,0.24 17.88,1.33 17.70,2.41 17.19,3.39 16.67,4.36 15.88,5.12 15.08,5.88 14.08,6.34 13.08,6.81 11.99,6.93 10.89,7.05 9.82,6.81 8.74,6.58 7.80,6.01 6.86,5.45 6.14,4.61 5.43,3.77 5.02,2.75 4.61,1.73 4.55,0.63 4.49,-0.46 4.78,-1.52 5.07,-2.58 5.69,-3.49 6.30,-4.41 7.18,-5.07 8.05,-5.74 9.10,-6.09 10.14,-6.45 11.24,-6.45 12.34,-6.45 13.38,-6.10 14.43,-5.75 15.30,-5.09 16.18,-4.42 16.80,-3.51 17.42,-2.60 17.72,-1.54 18.01,-0.48 17.95,0.61 17.90,1.71 17.49,2.73 17.09,3.75 16.37,4.59 15.66,5.43 14.72,6.00 13.78,6.57 12.70,6.81 11.63,7.05 10.54,6.93 9.44,6.81 8.44,6.35 7.44,5.89 6.64,5.14 5.84,4.38 5.32,3.41 4.81,2.44 4.63,1.35 4.45,0.26 4.45,0.27 4.45,0.27 4.45,-1.89 4.44,-4.05 4.42,-7.25 4.40,-10.46 7.28,-8.24 10.16,-6.02 8.03,-6.14 5.89,-6.26 3.23,-6.39 0.58,-6.52 2.57,-7.60 4.56,-8.69 4.64,-6.42 4.72,-4.16 4.82,-2.33 4.91,-0.50 4.90,0.09 4.89,0.68 4.73,1.25 4.58,1.83 4.29,2.35 4.01,2.87 3.61,3.31 3.20,3.74 2.71,4.07 2.21,4.40 1.65,4.60 1.10,4.80 0.50,4.86 -0.08,4.92 -0.66,4.84 -1.25,4.76 -1.80,4.54 -2.35,4.31 -2.84,3.97 -3.32,3.62 -3.71,3.17 -4.09,2.72 -4.36,2.19 -4.62,1.65 -4.75,1.08 -4.88,0.50 -4.88,0.50 L -4.88,0.50 Z"/></g><g transform="translate(344.3468056887491 184.36911615308873) rotate(122.38660271228295 5.0229799694194455 -6.119989243577834)" stroke="none"><path fill="#1e1e1e" d="M -4.88,0.50 Q -4.88,0.50 -5.17,-1.31 -5.45,-3.12 -6.02,-5.51 -6.60,-7.91 -6.65,-10.46 -6.71,-13.01 -5.55,-14.81 -4.40,-16.62 -2.40,-17.62 -0.40,-18.62 2.74,-18.77 5.89,-18.92 8.03,-19.04 10.16,-19.16 12.38,-18.44 14.59,-17.71 15.84,-15.96 17.09,-14.20 17.50,-11.77 17.91,-9.33 17.97,-6.73 18.03,-4.14 18.04,-1.94 18.05,0.24 17.88,1.33 17.70,2.41 17.19,3.39 16.67,4.36 15.88,5.12 15.08,5.88 14.08,6.34 13.08,6.81 11.99,6.93 10.89,7.05 9.82,6.81 8.74,6.58 7.80,6.01 6.86,5.45 6.14,4.61 5.43,3.77 5.02,2.75 4.61,1.73 4.55,0.63 4.49,-0.46 4.78,-1.52 5.07,-2.58 5.69,-3.49 6.30,-4.41 7.18,-5.07 8.05,-5.74 9.10,-6.09 10.14,-6.45 11.24,-6.45 12.34,-6.45 13.38,-6.10 14.43,-5.75 15.30,-5.09 16.18,-4.42 16.80,-3.51 17.42,-2.60 17.72,-1.54 18.01,-0.48 17.95,0.61 17.90,1.71 17.49,2.73 17.09,3.75 16.37,4.59 15.66,5.43 14.72,6.00 13.78,6.57 12.70,6.81 11.63,7.05 10.54,6.93 9.44,6.81 8.44,6.35 7.44,5.89 6.64,5.14 5.84,4.38 5.32,3.41 4.81,2.44 4.63,1.35 4.45,0.26 4.45,0.27 4.45,0.27 4.45,-1.89 4.44,-4.05 4.42,-7.25 4.40,-10.46 7.28,-8.24 10.16,-6.02 8.03,-6.14 5.89,-6.26 3.23,-6.39 0.58,-6.52 2.57,-7.60 4.56,-8.69 4.64,-6.42 4.72,-4.16 4.82,-2.33 4.91,-0.50 4.90,0.09 4.89,0.68 4.73,1.25 4.58,1.83 4.29,2.35 4.01,2.87 3.61,3.31 3.20,3.74 2.71,4.07 2.21,4.40 1.65,4.60 1.10,4.80 0.50,4.86 -0.08,4.92 -0.66,4.84 -1.25,4.76 -1.80,4.54 -2.35,4.31 -2.84,3.97 -3.32,3.62 -3.71,3.17 -4.09,2.72 -4.36,2.19 -4.62,1.65 -4.75,1.08 -4.88,0.50 -4.88,0.50 L -4.88,0.50 Z"/></g><g transform="translate(331.8348590319653 200.47290363984712) rotate(145.1297435761432 5.0229799694194455 -6.290312612440971)" stroke="none"><path fill="#1e1e1e" d="M -4.88,0.18 Q -4.88,0.18 -5.16,-1.58 -5.44,-3.34 -6.01,-5.67 -6.59,-7.99 -6.63,-10.54 -6.68,-13.08 -5.51,-14.86 -4.34,-16.65 -2.36,-17.63 -0.39,-18.61 2.75,-18.76 5.89,-18.91 8.03,-19.03 10.16,-19.15 12.34,-18.45 14.53,-17.75 15.80,-16.00 17.07,-14.25 17.49,-11.85 17.90,-9.44 17.96,-6.90 18.03,-4.36 18.04,-2.23 18.05,-0.09 17.87,0.99 17.70,2.07 17.18,3.05 16.67,4.02 15.87,4.78 15.08,5.54 14.08,6.00 13.08,6.46 11.99,6.58 10.90,6.70 9.82,6.47 8.75,6.24 7.80,5.67 6.86,5.11 6.15,4.27 5.43,3.43 5.02,2.41 4.61,1.39 4.55,0.29 4.49,-0.80 4.78,-1.86 5.08,-2.92 5.69,-3.83 6.31,-4.74 7.18,-5.41 8.06,-6.07 9.10,-6.43 10.14,-6.78 11.24,-6.78 12.34,-6.78 13.38,-6.43 14.43,-6.09 15.30,-5.42 16.18,-4.76 16.80,-3.85 17.42,-2.94 17.71,-1.88 18.01,-0.82 17.95,0.27 17.89,1.37 17.49,2.39 17.08,3.41 16.37,4.25 15.66,5.09 14.72,5.66 13.78,6.23 12.70,6.47 11.63,6.70 10.54,6.59 9.44,6.47 8.44,6.01 7.45,5.55 6.65,4.79 5.85,4.04 5.33,3.07 4.81,2.10 4.63,1.01 4.45,-0.06 4.45,-0.06 4.45,-0.06 4.45,-2.17 4.45,-4.27 4.44,-7.34 4.43,-10.42 7.30,-8.22 10.16,-6.03 8.03,-6.15 5.89,-6.27 3.22,-6.40 0.55,-6.53 2.54,-7.69 4.54,-8.85 4.63,-6.63 4.72,-4.41 4.81,-2.62 4.90,-0.84 4.89,-0.25 4.88,0.34 4.73,0.91 4.58,1.48 4.30,2.00 4.01,2.52 3.61,2.96 3.21,3.40 2.72,3.73 2.22,4.06 1.67,4.26 1.11,4.46 0.52,4.52 -0.06,4.58 -0.65,4.50 -1.24,4.42 -1.79,4.20 -2.34,3.98 -2.82,3.64 -3.31,3.29 -3.69,2.84 -4.08,2.39 -4.35,1.86 -4.61,1.33 -4.74,0.76 -4.88,0.18 -4.88,0.18 L -4.88,0.18 Z"/></g><g transform="translate(309.76535922758677 206.84147944817823) rotate(167.4584992196401 5.0229799694194455 -6.290312612440971)" stroke="none"><path fill="#1e1e1e" d="M -4.88,0.18 Q -4.88,0.18 -5.16,-1.58 -5.44,-3.34 -6.01,-5.67 -6.59,-7.99 -6.63,-10.54 -6.68,-13.08 -5.51,-14.86 -4.34,-16.65 -2.36,-17.63 -0.39,-18.61 2.75,-18.76 5.89,-18.91 8.03,-19.03 10.16,-19.15 12.34,-18.45 14.53,-17.75 15.80,-16.00 17.07,-14.25 17.49,-11.85 17.90,-9.44 17.96,-6.90 18.03,-4.36 18.04,-2.23 18.05,-0.09 17.87,0.99 17.70,2.07 17.18,3.05 16.67,4.02 15.87,4.78 15.08,5.54 14.08,6.00 13.08,6.46 11.99,6.58 10.90,6.70 9.82,6.47 8.75,6.24 7.80,5.67 6.86,5.11 6.15,4.27 5.43,3.43 5.02,2.41 4.61,1.39 4.55,0.29 4.49,-0.80 4.78,-1.86 5.08,-2.92 5.69,-3.83 6.31,-4.74 7.18,-5.41 8.06,-6.07 9.10,-6.43 10.14,-6.78 11.24,-6.78 12.34,-6.78 13.38,-6.43 14.43,-6.09 15.30,-5.42 16.18,-4.76 16.80,-3.85 17.42,-2.94 17.71,-1.88 18.01,-0.82 17.95,0.27 17.89,1.37 17.49,2.39 17.08,3.41 16.37,4.25 15.66,5.09 14.72,5.66 13.78,6.23 12.70,6.47 11.63,6.70 10.54,6.59 9.44,6.47 8.44,6.01 7.45,5.55 6.65,4.79 5.85,4.04 5.33,3.07 4.81,2.10 4.63,1.01 4.45,-0.06 4.45,-0.06 4.45,-0.06 4.45,-2.17 4.45,-4.27 4.44,-7.34 4.43,-10.42 7.30,-8.22 10.16,-6.03 8.03,-6.15 5.89,-6.27 3.22,-6.40 0.55,-6.53 2.54,-7.69 4.54,-8.85 4.63,-6.63 4.72,-4.41 4.81,-2.62 4.90,-0.84 4.89,-0.25 4.88,0.34 4.73,0.91 4.58,1.48 4.30,2.00 4.01,2.52 3.61,2.96 3.21,3.40 2.72,3.73 2.22,4.06 1.67,4.26 1.11,4.46 0.52,4.52 -0.06,4.58 -0.65,4.50 -1.24,4.42 -1.79,4.20 -2.34,3.98 -2.82,3.64 -3.31,3.29 -3.69,2.84 -4.08,2.39 -4.35,1.86 -4.61,1.33 -4.74,0.76 -4.88,0.18 -4.88,0.18 L -4.88,0.18 Z"/></g><g transform="translate(287.53818271654785 208.00309014779145) rotate(194.3431444278915 5.022979969419438 -6.290312612440971)" stroke="none"><path fill="#1e1e1e" d="M -4.88,0.18 Q -4.88,0.18 -5.16,-1.58 -5.44,-3.34 -6.01,-5.67 -6.59,-7.99 -6.63,-10.54 -6.68,-13.08 -5.51,-14.86 -4.34,-16.65 -2.36,-17.63 -0.39,-18.61 2.75,-18.76 5.89,-18.91 8.03,-19.03 10.16,-19.15 12.34,-18.45 14.53,-17.75 15.80,-16.00 17.07,-14.25 17.49,-11.85 17.90,-9.44 17.96,-6.90 18.03,-4.36 18.04,-2.23 18.05,-0.09 17.87,0.99 17.70,2.07 17.18,3.05 16.67,4.02 15.87,4.78 15.08,5.54 14.08,6.00 13.08,6.46 11.99,6.58 10.90,6.70 9.82,6.47 8.75,6.24 7.80,5.67 6.86,5.11 6.15,4.27 5.43,3.43 5.02,2.41 4.61,1.39 4.55,0.29 4.49,-0.80 4.78,-1.86 5.08,-2.92 5.69,-3.83 6.31,-4.74 7.18,-5.41 8.06,-6.07 9.10,-6.43 10.14,-6.78 11.24,-6.78 12.34,-6.78 13.38,-6.43 14.43,-6.09 15.30,-5.42 16.18,-4.76 16.80,-3.85 17.42,-2.94 17.71,-1.88 18.01,-0.82 17.95,0.27 17.89,1.37 17.49,2.39 17.08,3.41 16.37,4.25 15.66,5.09 14.72,5.66 13.78,6.23 12.70,6.47 11.63,6.70 10.54,6.59 9.44,6.47 8.44,6.01 7.45,5.55 6.65,4.79 5.85,4.04 5.33,3.07 4.81,2.10 4.63,1.01 4.45,-0.06 4.45,-0.06 4.45,-0.06 4.45,-2.17 4.45,-4.27 4.44,-7.34 4.43,-10.42 7.30,-8.22 10.16,-6.03 8.03,-6.15 5.89,-6.27 3.22,-6.40 0.55,-6.53 2.54,-7.69 4.54,-8.85 4.63,-6.63 4.72,-4.41 4.81,-2.62 4.90,-0.84 4.89,-0.25 4.88,0.34 4.73,0.91 4.58,1.48 4.30,2.00 4.01,2.52 3.61,2.96 3.21,3.40 2.72,3.73 2.22,4.06 1.67,4.26 1.11,4.46 0.52,4.52 -0.06,4.58 -0.65,4.50 -1.24,4.42 -1.79,4.20 -2.34,3.98 -2.82,3.64 -3.31,3.29 -3.69,2.84 -4.08,2.39 -4.35,1.86 -4.61,1.33 -4.74,0.76 -4.88,0.18 -4.88,0.18 L -4.88,0.18 Z"/></g><g transform="translate(266.09983375627314 195.64651897535873) rotate(235.03215004637593 5.69597707395252 -6.290312612440971)" stroke="none"><path fill="#1e1e1e" d="M -4.74,0.23 Q -4.74,0.23 -5.04,-1.52 -5.34,-3.28 -5.95,-5.60 -6.56,-7.92 -6.58,-10.59 -6.61,-13.26 -5.36,-15.02 -4.12,-16.78 -2.16,-17.70 -0.21,-18.62 1.93,-18.74 4.08,-18.85 6.20,-18.92 8.33,-18.99 11.96,-18.47 15.59,-17.95 16.96,-16.20 18.33,-14.45 18.80,-11.96 19.26,-9.48 19.33,-6.93 19.40,-4.37 19.41,-2.23 19.42,-0.09 19.24,0.99 19.06,2.08 18.55,3.06 18.03,4.03 17.23,4.79 16.43,5.55 15.43,6.02 14.43,6.48 13.34,6.60 12.24,6.73 11.16,6.49 10.09,6.26 9.14,5.69 8.19,5.12 7.48,4.28 6.76,3.44 6.35,2.42 5.94,1.40 5.88,0.29 5.82,-0.80 6.11,-1.86 6.40,-2.92 7.02,-3.84 7.64,-4.75 8.51,-5.42 9.39,-6.09 10.44,-6.45 11.48,-6.80 12.58,-6.80 13.69,-6.80 14.73,-6.45 15.78,-6.10 16.66,-5.44 17.54,-4.77 18.16,-3.86 18.78,-2.95 19.08,-1.89 19.37,-0.82 19.32,0.27 19.26,1.37 18.85,2.40 18.45,3.42 17.73,4.26 17.02,5.10 16.08,5.68 15.13,6.25 14.06,6.48 12.98,6.72 11.88,6.61 10.78,6.49 9.78,6.03 8.78,5.57 7.98,4.81 7.18,4.05 6.66,3.08 6.14,2.10 5.96,1.02 5.78,-0.06 5.78,-0.06 5.78,-0.06 5.77,-2.16 5.77,-4.26 5.76,-7.25 5.75,-10.23 8.37,-8.13 11.00,-6.03 8.83,-6.14 6.66,-6.26 3.60,-6.39 0.54,-6.51 2.55,-7.74 4.56,-8.97 4.68,-6.72 4.81,-4.47 4.92,-2.68 5.03,-0.90 5.03,-0.30 5.02,0.28 4.88,0.86 4.73,1.43 4.45,1.96 4.18,2.48 3.78,2.92 3.38,3.36 2.90,3.70 2.41,4.03 1.85,4.24 1.29,4.45 0.70,4.52 0.11,4.59 -0.46,4.51 -1.05,4.44 -1.61,4.22 -2.16,4.01 -2.65,3.67 -3.13,3.33 -3.52,2.89 -3.92,2.44 -4.19,1.91 -4.46,1.39 -4.60,0.81 -4.74,0.23 -4.74,0.23 L -4.74,0.23 Z"/></g><g transform="translate(252.622824098373 174.7128333245787) rotate(254.53834175461267 5.69597707395252 -6.290312612440971)" stroke="none"><path fill="#1e1e1e" d="M -4.74,0.23 Q -4.74,0.23 -5.04,-1.52 -5.34,-3.28 -5.95,-5.60 -6.56,-7.92 -6.58,-10.59 -6.61,-13.26 -5.36,-15.02 -4.12,-16.78 -2.16,-17.70 -0.21,-18.62 1.93,-18.74 4.08,-18.85 6.20,-18.92 8.33,-18.99 11.96,-18.47 15.59,-17.95 16.96,-16.20 18.33,-14.45 18.80,-11.96 19.26,-9.48 19.33,-6.93 19.40,-4.37 19.41,-2.23 19.42,-0.09 19.24,0.99 19.06,2.08 18.55,3.06 18.03,4.03 17.23,4.79 16.43,5.55 15.43,6.02 14.43,6.48 13.34,6.60 12.24,6.73 11.16,6.49 10.09,6.26 9.14,5.69 8.19,5.12 7.48,4.28 6.76,3.44 6.35,2.42 5.94,1.40 5.88,0.29 5.82,-0.80 6.11,-1.86 6.40,-2.92 7.02,-3.84 7.64,-4.75 8.51,-5.42 9.39,-6.09 10.44,-6.45 11.48,-6.80 12.58,-6.80 13.69,-6.80 14.73,-6.45 15.78,-6.10 16.66,-5.44 17.54,-4.77 18.16,-3.86 18.78,-2.95 19.08,-1.89 19.37,-0.82 19.32,0.27 19.26,1.37 18.85,2.40 18.45,3.42 17.73,4.26 17.02,5.10 16.08,5.68 15.13,6.25 14.06,6.48 12.98,6.72 11.88,6.61 10.78,6.49 9.78,6.03 8.78,5.57 7.98,4.81 7.18,4.05 6.66,3.08 6.14,2.10 5.96,1.02 5.78,-0.06 5.78,-0.06 5.78,-0.06 5.77,-2.16 5.77,-4.26 5.76,-7.25 5.75,-10.23 8.37,-8.13 11.00,-6.03 8.83,-6.14 6.66,-6.26 3.60,-6.39 0.54,-6.51 2.55,-7.74 4.56,-8.97 4.68,-6.72 4.81,-4.47 4.92,-2.68 5.03,-0.90 5.03,-0.30 5.02,0.28 4.88,0.86 4.73,1.43 4.45,1.96 4.18,2.48 3.78,2.92 3.38,3.36 2.90,3.70 2.41,4.03 1.85,4.24 1.29,4.45 0.70,4.52 0.11,4.59 -0.46,4.51 -1.05,4.44 -1.61,4.22 -2.16,4.01 -2.65,3.67 -3.13,3.33 -3.52,2.89 -3.92,2.44 -4.19,1.91 -4.46,1.39 -4.60,0.81 -4.74,0.23 -4.74,0.23 L -4.74,0.23 Z"/></g><g transform="translate(249.52115647030803 151.77239659279462) rotate(280.52978219440837 5.69597707395252 -6.290312612440971)" stroke="none"><path fill="#1e1e1e" d="M -4.74,0.23 Q -4.74,0.23 -5.04,-1.52 -5.34,-3.28 -5.95,-5.60 -6.56,-7.92 -6.58,-10.59 -6.61,-13.26 -5.36,-15.02 -4.12,-16.78 -2.16,-17.70 -0.21,-18.62 1.93,-18.74 4.08,-18.85 6.20,-18.92 8.33,-18.99 11.96,-18.47 15.59,-17.95 16.96,-16.20 18.33,-14.45 18.80,-11.96 19.26,-9.48 19.33,-6.93 19.40,-4.37 19.41,-2.23 19.42,-0.09 19.24,0.99 19.06,2.08 18.55,3.06 18.03,4.03 17.23,4.79 16.43,5.55 15.43,6.02 14.43,6.48 13.34,6.60 12.24,6.73 11.16,6.49 10.09,6.26 9.14,5.69 8.19,5.12 7.48,4.28 6.76,3.44 6.35,2.42 5.94,1.40 5.88,0.29 5.82,-0.80 6.11,-1.86 6.40,-2.92 7.02,-3.84 7.64,-4.75 8.51,-5.42 9.39,-6.09 10.44,-6.45 11.48,-6.80 12.58,-6.80 13.69,-6.80 14.73,-6.45 15.78,-6.10 16.66,-5.44 17.54,-4.77 18.16,-3.86 18.78,-2.95 19.08,-1.89 19.37,-0.82 19.32,0.27 19.26,1.37 18.85,2.40 18.45,3.42 17.73,4.26 17.02,5.10 16.08,5.68 15.13,6.25 14.06,6.48 12.98,6.72 11.88,6.61 10.78,6.49 9.78,6.03 8.78,5.57 7.98,4.81 7.18,4.05 6.66,3.08 6.14,2.10 5.96,1.02 5.78,-0.06 5.78,-0.06 5.78,-0.06 5.77,-2.16 5.77,-4.26 5.76,-7.25 5.75,-10.23 8.37,-8.13 11.00,-6.03 8.83,-6.14 6.66,-6.26 3.60,-6.39 0.54,-6.51 2.55,-7.74 4.56,-8.97 4.68,-6.72 4.81,-4.47 4.92,-2.68 5.03,-0.90 5.03,-0.30 5.02,0.28 4.88,0.86 4.73,1.43 4.45,1.96 4.18,2.48 3.78,2.92 3.38,3.36 2.90,3.70 2.41,4.03 1.85,4.24 1.29,4.45 0.70,4.52 0.11,4.59 -0.46,4.51 -1.05,4.44 -1.61,4.22 -2.16,4.01 -2.65,3.67 -3.13,3.33 -3.52,2.89 -3.92,2.44 -4.19,1.91 -4.46,1.39 -4.60,0.81 -4.74,0.23 -4.74,0.23 L -4.74,0.23 Z"/></g><g transform="translate(259.94978257120493 130.63187722721818) rotate(309.0781068045569 5.69597707395252 -6.290312612440971)" stroke="none"><path fill="#1e1e1e" d="M -4.74,0.23 Q -4.74,0.23 -5.04,-1.52 -5.34,-3.28 -5.95,-5.60 -6.56,-7.92 -6.58,-10.59 -6.61,-13.26 -5.36,-15.02 -4.12,-16.78 -2.16,-17.70 -0.21,-18.62 1.93,-18.74 4.08,-18.85 6.20,-18.92 8.33,-18.99 11.96,-18.47 15.59,-17.95 16.96,-16.20 18.33,-14.45 18.80,-11.96 19.26,-9.48 19.33,-6.93 19.40,-4.37 19.41,-2.23 19.42,-0.09 19.24,0.99 19.06,2.08 18.55,3.06 18.03,4.03 17.23,4.79 16.43,5.55 15.43,6.02 14.43,6.48 13.34,6.60 12.24,6.73 11.16,6.49 10.09,6.26 9.14,5.69 8.19,5.12 7.48,4.28 6.76,3.44 6.35,2.42 5.94,1.40 5.88,0.29 5.82,-0.80 6.11,-1.86 6.40,-2.92 7.02,-3.84 7.64,-4.75 8.51,-5.42 9.39,-6.09 10.44,-6.45 11.48,-6.80 12.58,-6.80 13.69,-6.80 14.73,-6.45 15.78,-6.10 16.66,-5.44 17.54,-4.77 18.16,-3.86 18.78,-2.95 19.08,-1.89 19.37,-0.82 19.32,0.27 19.26,1.37 18.85,2.40 18.45,3.42 17.73,4.26 17.02,5.10 16.08,5.68 15.13,6.25 14.06,6.48 12.98,6.72 11.88,6.61 10.78,6.49 9.78,6.03 8.78,5.57 7.98,4.81 7.18,4.05 6.66,3.08 6.14,2.10 5.96,1.02 5.78,-0.06 5.78,-0.06 5.78,-0.06 5.77,-2.16 5.77,-4.26 5.76,-7.25 5.75,-10.23 8.37,-8.13 11.00,-6.03 8.83,-6.14 6.66,-6.26 3.60,-6.39 0.54,-6.51 2.55,-7.74 4.56,-8.97 4.68,-6.72 4.81,-4.47 4.92,-2.68 5.03,-0.90 5.03,-0.30 5.02,0.28 4.88,0.86 4.73,1.43 4.45,1.96 4.18,2.48 3.78,2.92 3.38,3.36 2.90,3.70 2.41,4.03 1.85,4.24 1.29,4.45 0.70,4.52 0.11,4.59 -0.46,4.51 -1.05,4.44 -1.61,4.22 -2.16,4.01 -2.65,3.67 -3.13,3.33 -3.52,2.89 -3.92,2.44 -4.19,1.91 -4.46,1.39 -4.60,0.81 -4.74,0.23 -4.74,0.23 L -4.74,0.23 Z"/></g><g transform="translate(275.70347468770103 115.90897849661746) rotate(335.7187144995279 5.69597707395252 -6.290312612440971)" stroke="none"><path fill="#1e1e1e" d="M -4.74,0.23 Q -4.74,0.23 -5.04,-1.52 -5.34,-3.28 -5.95,-5.60 -6.56,-7.92 -6.58,-10.59 -6.61,-13.26 -5.36,-15.02 -4.12,-16.78 -2.16,-17.70 -0.21,-18.62 1.93,-18.74 4.08,-18.85 6.20,-18.92 8.33,-18.99 11.96,-18.47 15.59,-17.95 16.96,-16.20 18.33,-14.45 18.80,-11.96 19.26,-9.48 19.33,-6.93 19.40,-4.37 19.41,-2.23 19.42,-0.09 19.24,0.99 19.06,2.08 18.55,3.06 18.03,4.03 17.23,4.79 16.43,5.55 15.43,6.02 14.43,6.48 13.34,6.60 12.24,6.73 11.16,6.49 10.09,6.26 9.14,5.69 8.19,5.12 7.48,4.28 6.76,3.44 6.35,2.42 5.94,1.40 5.88,0.29 5.82,-0.80 6.11,-1.86 6.40,-2.92 7.02,-3.84 7.64,-4.75 8.51,-5.42 9.39,-6.09 10.44,-6.45 11.48,-6.80 12.58,-6.80 13.69,-6.80 14.73,-6.45 15.78,-6.10 16.66,-5.44 17.54,-4.77 18.16,-3.86 18.78,-2.95 19.08,-1.89 19.37,-0.82 19.32,0.27 19.26,1.37 18.85,2.40 18.45,3.42 17.73,4.26 17.02,5.10 16.08,5.68 15.13,6.25 14.06,6.48 12.98,6.72 11.88,6.61 10.78,6.49 9.78,6.03 8.78,5.57 7.98,4.81 7.18,4.05 6.66,3.08 6.14,2.10 5.96,1.02 5.78,-0.06 5.78,-0.06 5.78,-0.06 5.77,-2.16 5.77,-4.26 5.76,-7.25 5.75,-10.23 8.37,-8.13 11.00,-6.03 8.83,-6.14 6.66,-6.26 3.60,-6.39 0.54,-6.51 2.55,-7.74 4.56,-8.97 4.68,-6.72 4.81,-4.47 4.92,-2.68 5.03,-0.90 5.03,-0.30 5.02,0.28 4.88,0.86 4.73,1.43 4.45,1.96 4.18,2.48 3.78,2.92 3.38,3.36 2.90,3.70 2.41,4.03 1.85,4.24 1.29,4.45 0.70,4.52 0.11,4.59 -0.46,4.51 -1.05,4.44 -1.61,4.22 -2.16,4.01 -2.65,3.67 -3.13,3.33 -3.52,2.89 -3.92,2.44 -4.19,1.91 -4.46,1.39 -4.60,0.81 -4.74,0.23 -4.74,0.23 L -4.74,0.23 Z"/></g><g transform="translate(293.8727629139606 113.04776770136982) rotate(355.7279225849584 5.695977073952527 -5.950737953472753)" stroke="none"><path fill="#1e1e1e" d="M -4.76,0.87 Q -4.76,0.87 -5.05,-0.98 -5.35,-2.84 -5.97,-5.29 -6.58,-7.75 -6.63,-10.42 -6.67,-13.10 -5.45,-14.91 -4.23,-16.71 -2.23,-17.68 -0.23,-18.65 1.92,-18.76 4.08,-18.88 6.20,-18.95 8.33,-19.01 10.47,-18.97 12.60,-18.94 15.49,-16.64 18.38,-14.34 18.83,-11.81 19.28,-9.27 19.34,-6.59 19.40,-3.92 19.41,-1.67 19.42,0.58 19.25,1.67 19.07,2.76 18.55,3.73 18.04,4.71 17.24,5.47 16.44,6.23 15.44,6.70 14.44,7.16 13.34,7.29 12.24,7.41 11.16,7.17 10.08,6.94 9.14,6.37 8.19,5.80 7.47,4.96 6.75,4.12 6.34,3.10 5.93,2.07 5.87,0.97 5.81,-0.13 6.10,-1.19 6.40,-2.25 7.01,-3.17 7.63,-4.08 8.51,-4.75 9.39,-5.42 10.43,-5.78 11.48,-6.13 12.58,-6.14 13.69,-6.14 14.74,-5.79 15.78,-5.44 16.66,-4.77 17.54,-4.10 18.17,-3.19 18.79,-2.28 19.08,-1.21 19.38,-0.15 19.32,0.94 19.27,2.05 18.86,3.07 18.45,4.10 17.74,4.94 17.02,5.79 16.08,6.36 15.13,6.93 14.06,7.17 12.98,7.41 11.88,7.29 10.78,7.17 9.78,6.71 8.78,6.25 7.97,5.49 7.17,4.73 6.65,3.76 6.13,2.78 5.95,1.69 5.77,0.60 5.77,0.60 5.77,0.60 5.77,-1.60 5.76,-3.82 5.73,-7.06 5.70,-10.30 8.35,-8.16 11.00,-6.01 8.83,-6.12 6.66,-6.24 3.63,-6.36 0.59,-6.48 2.59,-7.56 4.59,-8.65 4.70,-6.31 4.81,-3.97 4.93,-2.09 5.04,-0.21 5.04,0.38 5.03,0.97 4.88,1.55 4.73,2.12 4.45,2.65 4.17,3.17 3.77,3.61 3.37,4.05 2.88,4.39 2.38,4.72 1.83,4.92 1.27,5.13 0.68,5.19 0.09,5.26 -0.49,5.18 -1.08,5.10 -1.64,4.88 -2.19,4.67 -2.68,4.32 -3.16,3.98 -3.55,3.53 -3.94,3.08 -4.21,2.55 -4.48,2.02 -4.62,1.44 -4.76,0.87 -4.76,0.87 L -4.76,0.87 Z"/></g><g stroke-linecap="round" transform="translate(283.6494874580385 131.03554075643865) rotate(15.08234454131543 22.415772084590422 23.032020761623926)"><path d="M6.32 6.82 C6.32 6.82, 6.32 6.82, 6.32 6.82 M6.32 6.82 C6.32 6.82, 6.32 6.82, 6.32 6.82 M1.2 24.9 C6.99 19.06, 11.45 14.14, 22.2 0.74 M1.2 24.9 C8.16 16.97, 15.05 9.72, 22.2 0.74 M3.3 34.67 C10.59 24.4, 18.88 15.99, 30.86 2.97 M3.3 34.67 C13.42 23.48, 23.54 11.78, 30.86 2.97 M9.34 39.92 C18.2 30.23, 27.54 19.38, 37.55 7.47 M9.34 39.92 C18.11 30.33, 26.57 20.39, 37.55 7.47 M16.04 44.41 C24.88 35.01, 33.49 25.13, 42.28 14.23 M16.04 44.41 C25.29 34.08, 33.62 24.41, 42.28 14.23 M26.67 44.38 C30.52 39.69, 36.51 32.21, 43.07 25.51 M26.67 44.38 C30.6 40.05, 34.62 35.34, 43.07 25.51 M3.38 35.74 C3.38 35.74, 3.38 35.74, 3.38 35.74 M3.38 35.74 C3.38 35.74, 3.38 35.74, 3.38 35.74 M25.23 44.14 C16.76 36.17, 9.49 28.85, 1.08 23.14 M25.23 44.14 C18.47 38.14, 11.64 32.1, 1.08 23.14 M34.26 41.38 C26.84 34.75, 19.15 28.33, 3.31 14.48 M34.26 41.38 C22.73 31.12, 10.49 21.49, 3.31 14.48 M39.5 35.34 C28.31 26.37, 17.88 16.27, 6.3 6.47 M39.5 35.34 C32.07 28.73, 24.93 23.28, 6.3 6.47 M43.24 27.99 C34.39 19.55, 23.13 10.09, 14.56 3.06 M43.24 27.99 C33.64 20.47, 25.01 12.42, 14.56 3.06 M43.96 18.02 C39.83 13.46, 35.87 11.27, 23.59 0.3 M43.96 18.02 C35.82 11.35, 27.94 4.22, 23.59 0.3" stroke="#e9ecef" stroke-width="1" fill="none"/><path d="M20.8 -0.37 C25.29 -0.98, 31.23 1.3, 35.04 4.2 C38.85 7.1, 42.43 12.22, 43.65 17.03 C44.87 21.84, 44.35 28.63, 42.35 33.05 C40.34 37.47, 35.93 41.59, 31.62 43.54 C27.3 45.5, 21.14 46.02, 16.48 44.76 C11.83 43.51, 6.36 39.96, 3.69 36.01 C1.02 32.06, 0.02 25.93, 0.44 21.08 C0.86 16.23, 2.68 10.37, 6.22 6.93 C9.75 3.5, 19.02 1.55, 21.64 0.49 C24.26 -0.58, 22.03 0.24, 21.95 0.55 M26.29 -0.11 C30.73 0.26, 35.99 3.77, 39.02 7.74 C42.04 11.7, 44.39 18.6, 44.46 23.68 C44.52 28.75, 42.59 34.51, 39.42 38.18 C36.24 41.85, 30.06 44.82, 25.4 45.71 C20.73 46.6, 15.5 45.94, 11.41 43.55 C7.31 41.16, 2.55 36.09, 0.82 31.37 C-0.9 26.65, -0.67 20, 1.08 15.23 C2.82 10.47, 7.08 5.34, 11.28 2.78 C15.48 0.22, 23.86 0.12, 26.27 -0.1 C28.69 -0.33, 25.75 0.84, 25.77 1.42" stroke="#ffffff" stroke-width="2" fill="none"/></g><g stroke-linecap="round"><g transform="translate(263.22241825139554 91.26992616108373) rotate(15.08234454131543 64.99746704101562 -6.646881103515625)"><path d="M-0.24 0.81 C4.96 -4.05, 13.29 -24.94, 30.19 -30.3 C47.08 -35.67, 84.57 -39.08, 101.12 -31.36 C117.67 -23.64, 124.6 8.04, 129.48 16.02 M-1.82 0.19 C3.3 -4.44, 12.17 -24.06, 29.21 -29.19 C46.24 -34.32, 83.67 -38.23, 100.38 -30.6 C117.09 -22.96, 124.66 8.72, 129.46 16.6" stroke="#1971c2" stroke-width="2" fill="none"/></g><g transform="translate(263.22241825139554 91.26992616108373) rotate(15.08234454131543 64.99746704101562 -6.646881103515625)"><path d="M112.34 -1.63 C117.19 2.22, 118.17 6.33, 129.46 16.6 M112.34 -1.63 C116.27 1.98, 120.51 7.09, 129.46 16.6" stroke="#1971c2" stroke-width="2" fill="none"/></g><g transform="translate(263.22241825139554 91.26992616108373) rotate(15.08234454131543 64.99746704101562 -6.646881103515625)"><path d="M128.06 -8.36 C129.47 -3.1, 127.07 2.45, 129.46 16.6 M128.06 -8.36 C128.61 -3.45, 129.51 3.09, 129.46 16.6" stroke="#1971c2" stroke-width="2" fill="none"/></g></g><mask/><g stroke-linecap="round"><g transform="translate(194.9191743082767 209.73555652927234) rotate(15.08234454131543 -98.30364990234375 3.39666748046875)"><path d="M-0.35 0.52 C-12.13 5.85, -48.68 29.61, -71.81 33.16 C-94.95 36.72, -118.46 31.71, -139.14 21.86 C-159.82 12.02, -186.44 -17.98, -195.91 -25.92 M1.67 -0.26 C-9.62 5.2, -45.85 27.33, -69.48 31.2 C-93.1 35.08, -119.11 32.31, -140.08 22.99 C-161.05 13.66, -185.79 -16.7, -195.3 -24.75" stroke="#1e1e1e" stroke-width="2" fill="none"/></g><g transform="translate(194.9191743082767 209.73555652927234) rotate(15.08234454131543 -98.30364990234375 3.39666748046875)"><path d="M-172.61 -14.24 C-176.5 -17.65, -181.5 -19.16, -195.3 -24.75 M-172.61 -14.24 C-178.26 -16.82, -184.81 -19.73, -195.3 -24.75" stroke="#1e1e1e" stroke-width="2" fill="none"/></g><g transform="translate(194.9191743082767 209.73555652927234) rotate(15.08234454131543 -98.30364990234375 3.39666748046875)"><path d="M-184.68 -2.12 C-186.21 -7.98, -188.74 -11.97, -195.3 -24.75 M-184.68 -2.12 C-187.15 -7.98, -190.45 -14.15, -195.3 -24.75" stroke="#1e1e1e" stroke-width="2" fill="none"/></g></g><mask/></svg>